<?xml version="1.0" encoding="utf-8"?>
<!-- Generator: Adobe Illustrator 25.0.0, SVG Export Plug-In . SVG Version: 6.00 Build 0)  -->
<svg version="1.1" id="Layer_1" focusable="false" xmlns="http://www.w3.org/2000/svg" xmlns:xlink="http://www.w3.org/1999/xlink"
	 x="0px" y="0px" viewBox="0 0 448 392" style="enable-background:new 0 0 448 392;" xml:space="preserve">
<style type="text/css">
	.st0{fill:#FFFFFF;}
</style>
<path class="st0" d="M298.3,196L409.7,84.6c13.7-13.7,13.7-35.8,0-49.5L385,10.3c-13.7-13.7-35.8-13.7-49.5,0L224,121.7L112.6,10.3
	C98.9-3.4,76.7-3.4,63,10.3L38.3,35c-13.7,13.7-13.7,35.8,0,49.5L149.7,196L38.3,307.4c-13.7,13.7-13.7,35.8,0,49.5L63,381.7
	c13.7,13.7,35.9,13.7,49.5,0L224,270.3l111.4,111.4c13.7,13.7,35.9,13.7,49.5,0l24.8-24.8c13.7-13.7,13.7-35.8,0-49.5L298.3,196z"/>
</svg>
