<?xml version="1.0" encoding="utf-8"?>
<!-- Generator: Adobe Illustrator 25.0.0, SVG Export Plug-In . SVG Version: 6.00 Build 0)  -->
<svg version="1.1" id="Layer_1" xmlns="http://www.w3.org/2000/svg" xmlns:xlink="http://www.w3.org/1999/xlink" x="0px" y="0px"
	 viewBox="0 0 2000 978.8" style="enable-background:new 0 0 2000 978.8;" xml:space="preserve">
<style type="text/css">
	.st0{fill:#8940FF;}
	.st1{fill:#FFFFFF;}
</style>
<g>
	<path class="st0" d="M85.8,66.1v10.7L31.3,52.7v-7.1l54.5-24.1v10.7l-40.2,17L85.8,66.1z"/>
	<path class="st0" d="M145.6,21v55.4h-12.1v-7.6l0,0c-1.3,2.7-3.6,4.9-6.7,6.7c-3.1,1.8-5.8,2.7-8.9,2.7c-7.1,0-12.5-1.8-15.6-5.4
		c-3.1-3.6-4.9-8.9-4.9-16.5V21h12.1v34c0,4.9,0.9,8,2.7,10.3c1.8,2.2,4.5,3.1,8,3.1c8.9,0,13.4-4.9,13.4-15.2V21H145.6z"/>
	<path class="st0" d="M158.6,76.4V0h12.1v76.4H158.6z"/>
	<path class="st0" d="M182.7,66.1l40.2-17l-40.2-17V21.4l54.5,24.1v7.6l-54.5,24.1V66.1z"/>
	<path class="st0" d="M234.5,246.6v10.7L180,233.2v-7.6l54.5-24.1v10.7l-40.2,17L234.5,246.6z"/>
	<path class="st0" d="M246.1,256.4V180h12.5v76.4C258.7,256.4,246.1,256.4,246.1,256.4z"/>
	<path class="st0" d="M272.1,191.6V180h12.1v11.6H272.1z M272.1,256.4V201h12.1v55.4C284.1,256.4,272.1,256.4,272.1,256.4z"/>
	<path class="st0" d="M296.2,246.6l40.2-17l-40.2-17v-10.7l54.5,24.1v7.1l-54.5,24.1V246.6z"/>
	<path class="st1" d="M415,246.6v10.7l-54.5-24.1v-7.6l54.5-24.1v10.7l-40.2,17L415,246.6z"/>
	<path class="st1" d="M472.6,215.8v28.6c0,1.3,0,2.7,0.4,3.1c0.4,0.4,1.3,0.9,2.2,0.9h1.3c0.4,0,0.9,0,1.8,0v8.5
		c-2.7,0.9-5.4,1.3-7.6,1.3c-5.4,0-8.5-2.2-9.4-6.7c-2.2,2.2-5.4,4-8.5,4.9c-3.6,1.3-7.1,1.8-10.7,1.8c-5.4,0-9.8-1.3-13.4-4
		c-3.6-2.7-5.4-6.7-5.4-12.1c0-3.1,0.4-6.3,1.8-8.5c1.3-2.2,3.1-4,5.4-5.4c2.2-1.3,4.5-2.2,6.7-2.7c2.2-0.4,4.5-0.9,8-1.3
		c1.3-0.4,3.1-0.4,4.9-0.9c1.8-0.4,3.6-0.4,4.9-0.4c0.9,0,2.2-0.4,3.6-0.9c1.3-0.4,2.2-1.3,2.7-1.8c0.4-0.9,0.9-1.8,0.9-3.6
		c0-4.9-4-7.6-11.6-7.6c-3.6,0-6.3,0.9-8.5,2.2s-3.6,3.6-3.6,6.7h-12.1c0.4-6.7,3.1-11.2,7.6-14.3c4.5-2.7,10.7-4.5,17.4-4.5
		c6.3,0,11.2,1.3,15.6,4C470.4,206.4,472.6,210.4,472.6,215.8z M460.6,237.7v-8.9c-1.3,0.9-2.7,1.3-4,1.8c-1.3,0.4-3.6,0.9-5.8,0.9
		c-2.7,0.4-4,0.4-4.9,0.4c-3.1,0.4-5.4,1.3-7.1,2.7c-1.8,1.3-2.7,3.6-2.7,6.3c0,2.7,1.3,4.5,3.6,5.4c2.2,0.9,4.9,1.8,7.6,1.8
		c3.1,0,6.3-0.9,9.4-2.7C459.2,243.9,460.6,241.2,460.6,237.7z"/>
	<path class="st1" d="M515.5,256.4V180h12.1v28.6l0,0c1.8-2.7,4-4.5,6.7-6.3c2.7-1.8,6.3-2.7,9.8-2.7c6.3,0,11.2,1.8,14.3,4.9
		s5.4,8,5.4,13.8v38h-12.1v-34.8c0-4.5-0.9-7.6-2.7-9.4c-1.8-1.8-4.5-3.1-8-3.1c-4,0-7.1,1.3-9.8,4s-3.6,6.3-3.6,10.3V256h-12.1
		V256.4z"/>
	<path class="st1" d="M577.2,256.4V201h11.6v10.7l0,0c0.9-3.1,2.7-5.8,5.8-8.5c3.1-2.7,6.7-4,10.3-4c0.9,0,2.2,0,4.5,0.4v11.6
		c-1.8-0.4-3.6-0.4-5.4-0.4c-4.5,0-8,1.8-10.7,4.9c-2.7,3.1-4.5,8-4.5,13.8V256h-11.6V256.4z"/>
	<path class="st1" d="M663.4,231.9h-40.7c0,4.5,1.3,8.5,4,11.6c2.7,3.1,6.3,4.9,11.2,4.9c6.7,0,11.2-3.1,13.4-9.4h11.6
		c-1.3,5.8-4,10.7-8.9,13.8c-4.9,3.1-9.8,4.9-16.1,4.9c-8.5,0-15.2-2.7-20.1-8c-4.9-5.4-7.1-12.5-7.1-21c0-8,2.7-15.2,7.6-20.5
		c4.9-5.8,11.6-8.5,19.2-8.5c8.5,0,15.2,3.1,20.1,9.8C662.5,215.8,664.3,223.4,663.4,231.9z M622.7,223.8h28.6
		c-0.4-4-1.8-7.6-4-10.3c-2.7-2.7-5.8-4.5-9.8-4.5s-7.6,1.3-10.3,4C624.1,216.2,622.7,219.8,622.7,223.8z"/>
	<path class="st1" d="M667.4,210.4v-8.9h8.9V197c0-6.3,1.3-10.7,4-13c2.7-2.2,6.7-3.6,11.2-3.6c4,0,6.7,0.4,8.5,0.9v9.4
		c-1.8-0.4-3.6-0.4-5.8-0.4c-4,0-5.8,1.8-5.8,5.8v5.8h10.3v8.9h-10.3v46.5h-12.1v-46.9H667.4z"/>
	<path class="st1" d="M759,213.1v11.2h-54.1v-10.7H759V213.1z M759,235v10.7h-54.1V235H759z"/>
	<path class="st1" d="M773.3,210.4V180H784v30.4H773.3z M792,210.4V180h10.7v30.4H792z"/>
	<path class="st1" d="M820.6,210.4V180h10.7v30.4H820.6z M839.8,210.4V180h10.7v30.4H839.8z"/>
	<path class="st1" d="M864.4,246.6l40.2-17l-40.2-17v-10.7l54.5,24.1v7.1l-54.5,24.1V246.6z"/>
	<path class="st1" d="M927.4,231h13.4c0,5.4,1.8,9.8,5.4,12.5c3.6,2.7,8,4,13.8,4c5.4,0,9.4-1.3,12.1-3.6c2.7-2.2,4-4.9,4-8
		c0-4.9-2.2-8-6.3-9.4c-1.8-0.4-3.6-1.3-5.4-1.8c-1.8-0.4-4.9-1.3-8.5-2.2c-3.6-0.9-6.7-1.8-8.9-2.2c-11.2-3.1-17-9.4-17-19.2
		c0-7.1,2.7-13,8.5-16.5c5.8-3.6,12.1-5.8,19.7-5.8c8.5,0,15.2,2.2,21,6.7c5.8,4.5,8.5,10.3,8.5,17.9h-13.4
		c-0.9-8.9-6.3-13.4-16.5-13.4c-3.6,0-7.1,0.9-9.8,2.2c-2.7,1.8-4,4-4,7.6c0,4.9,3.1,8,8.9,9.8c0,0,1.8,0.4,4.9,1.3
		c3.1,0.9,6.7,1.8,10.3,2.7c3.6,0.9,5.8,1.8,6.7,1.8c4.9,1.3,8.5,4,11.2,7.6c2.7,3.6,4,7.6,4,12.1c0,4-0.9,7.6-2.7,11.2
		c-1.8,3.1-4,5.8-7.1,7.6c-3.1,1.8-6.3,3.1-9.8,4s-7.1,1.3-11.2,1.3c-9.4,0-17-2.2-22.8-6.7C930.5,247,927.4,239.9,927.4,231z"/>
	<path class="st1" d="M1045.8,249.7c-4.9,5.4-11.6,8-20.5,8c-8.5,0-15.6-2.7-20.5-8c-4.9-5.4-7.6-12.5-7.6-21s2.7-15.6,7.6-21
		c4.9-5.4,11.6-8,20.5-8c8.5,0,15.6,2.7,20.5,8c4.9,5.4,7.6,12.5,7.6,21C1053.4,237.7,1050.7,244.4,1045.8,249.7z M1013.6,242.6
		c2.7,4,6.7,5.8,11.6,5.8c4.9,0,8.9-1.8,11.6-5.8c2.7-4,4-8.5,4-13.8c0-5.4-1.3-9.8-4-13.8c-2.7-4-6.7-5.8-11.6-5.8
		c-4.9,0-8.9,1.8-11.6,5.8c-2.7,4-4,8.5-4,13.8C1009.6,234.1,1010.9,238.6,1013.6,242.6z"/>
	<path class="st1" d="M1063.2,256.4V201h11.6v7.6h0.4c2.2-3.1,4.5-5.4,7.1-6.7s5.8-2.2,10.3-2.2c3.6,0,6.7,0.9,9.4,2.2
		c2.7,1.8,4.9,4,5.8,6.7c4.5-6.3,10.3-9.4,17.4-9.4c12.5,0,18.8,6.3,18.8,18.8v38.4H1132v-32.2c0-2.2,0-3.6,0-4.9s-0.4-2.7-0.9-4
		c-0.4-1.3-0.9-2.7-1.8-3.1c-0.9-0.9-1.8-1.3-3.1-1.8c-1.3-0.4-2.7-0.9-4.9-0.9c-8,0-11.6,4.9-11.6,14.7v32.6h-12.1v-35.7
		c0-4-0.9-7.1-2.2-8.9s-4-2.7-7.6-2.7s-6.3,1.3-8.5,4c-2.2,2.7-3.6,6.3-3.6,10.3v33.1h-12.5V256.4z"/>
	<path class="st1" d="M1207.1,231.9h-40.7c0,4.5,1.3,8.5,4,11.6c2.7,3.1,6.3,4.9,11.2,4.9c6.7,0,11.2-3.1,13.4-9.4h11.6
		c-1.3,5.8-4,10.7-8.9,13.8c-4.9,3.1-9.8,4.9-16.1,4.9c-8.5,0-15.2-2.7-20.1-8s-7.1-12.5-7.1-21c0-8,2.7-15.2,7.6-20.5
		c4.9-5.8,11.6-8.5,19.2-8.5c8.5,0,15.2,3.1,20.1,9.8C1206.2,215.8,1208,223.4,1207.1,231.9z M1166,223.8h28.6
		c-0.4-4-1.8-7.6-4-10.3c-2.7-2.7-5.8-4.5-9.8-4.5c-4,0-7.6,1.3-10.3,4C1167.7,216.2,1166.4,219.8,1166,223.8z"/>
	<path class="st1" d="M1210.6,210.4v-8.9h9.4v-16.5h12.1v16.5h11.2v8.9h-11.2v29.5c0,2.7,0.4,4.9,0.9,5.8c0.4,0.9,2.2,1.8,4.9,1.8
		c2.2,0,4,0,5.4-0.4v9.4c-3.6,0.4-6.3,0.4-8,0.4c-5.8,0-9.8-0.9-12.1-3.1c-2.2-2.2-3.1-5.8-3.1-10.7v-32.6
		C1220,210.4,1210.6,210.4,1210.6,210.4z"/>
	<path class="st1" d="M1251.7,256.4V180h12.1v28.6l0,0c1.8-2.7,4-4.5,6.7-6.3c2.7-1.8,6.3-2.7,9.8-2.7c6.3,0,11.2,1.8,14.3,4.9
		c3.1,3.1,5.4,8,5.4,13.8v38h-12.1v-34.8c0-4.5-0.9-7.6-2.7-9.4c-1.8-1.8-4.5-3.1-8-3.1c-4,0-7.1,1.3-9.8,4
		c-2.7,2.7-3.6,6.3-3.6,10.3V256h-12.1V256.4z"/>
	<path class="st1" d="M1313.8,191.6V180h12.1v11.6H1313.8z M1313.8,256.4V201h12.1v55.4C1325.9,256.4,1313.8,256.4,1313.8,256.4z"/>
	<path class="st1" d="M1339.3,256.4V201h11.6v8l0,0c1.8-3.1,4.5-5.4,7.6-7.1c3.1-1.8,6.3-2.7,9.8-2.7c6.3,0,11.2,1.8,14.3,4.9
		c3.1,3.1,5.4,8,5.4,13.8v38h-12.1v-34.8c0-4.5-0.9-7.6-2.7-9.4c-1.8-1.8-4.5-3.1-8-3.1c-4,0-7.1,1.3-9.8,4
		c-2.7,2.7-3.6,6.3-3.6,10.3v32.6h-12.5V256.4z"/>
	<path class="st1" d="M1452.3,201v52.7c0,8.5-2.2,14.3-7.1,18.8c-4.5,4-11.6,6.3-20.1,6.3c-4,0-7.6-0.4-11.2-1.3
		c-3.6-0.9-6.3-2.7-8.9-5.4c-2.7-2.7-4-6.3-4.5-10.3h12.1c0.9,3.1,2.2,5.4,4.5,6.7s5.4,1.8,8.9,1.8c9.4,0,14.3-4.9,14.3-14.3v-9.4
		l0,0c-1.8,3.1-4,5.4-7.1,7.1c-3.1,1.8-6.3,2.7-9.4,2.7c-5.8,0-10.3-1.3-14.3-4c-4-2.7-6.7-6.3-8-10.3c-1.3-4-2.7-8.9-2.7-14.7
		c0-7.6,2.2-14.3,6.7-19.7c4.5-5.4,10.7-8,18.3-8c8,0,13.4,3.1,16.5,8.9l0,0V201C1440.3,201,1452.3,201,1452.3,201z M1425.1,247
		c4.9,0,8.9-1.8,11.2-5.8c2.7-3.6,3.6-8.5,3.6-13.8c0-5.4-1.3-9.4-3.6-13c-2.7-3.6-6.3-5.4-11.2-5.4c-4.9,0-8.5,1.8-11.2,5.8
		c-2.2,3.6-3.6,8.5-3.6,13.4c0,4.9,1.3,9.4,3.6,13C1416.6,245.3,1420.1,247,1425.1,247z"/>
	<path class="st1" d="M1463,233.2v-11.6h31.3v11.6H1463z"/>
	<path class="st1" d="M1505.5,203.7v-9.8c5.8,0,10.7-0.9,14.7-3.1c4-1.8,6.7-5.4,7.1-9.4h9.8v75.1h-13.4v-52.7H1505.5z"/>
	<path class="st1" d="M1618.5,246.6v10.7l-54.1-24.1v-7.6l54.5-24.1v10.7l-40.2,17L1618.5,246.6z"/>
	<path class="st1" d="M1621.2,258.2l30.8-80.4h11.6l-30.8,80.4H1621.2z"/>
	<path class="st1" d="M1714.1,215.8v28.6c0,1.3,0,2.7,0.4,3.1c0.4,0.4,1.3,0.9,2.2,0.9h1.3c0.4,0,0.9,0,1.8,0v8.5
		c-2.7,0.9-5.4,1.3-7.6,1.3c-5.4,0-8.5-2.2-9.4-6.7c-2.2,2.2-5.4,4-8.5,4.9c-3.6,1.3-7.1,1.8-10.7,1.8c-5.4,0-9.8-1.3-13.4-4
		s-5.4-6.7-5.4-12.1c0-3.1,0.4-6.3,1.8-8.5c1.3-2.2,3.1-4,5.4-5.4s4.5-2.2,6.7-2.7c2.2-0.4,4.5-0.9,8-1.3c1.3-0.4,3.1-0.4,4.9-0.9
		c1.8-0.4,3.6-0.4,4.9-0.4c0.9,0,2.2-0.4,3.6-0.9s2.2-1.3,2.7-1.8c0.4-0.9,0.9-1.8,0.9-3.6c0-4.9-4-7.6-11.6-7.6
		c-3.6,0-6.3,0.9-8.5,2.2s-3.6,3.6-3.6,6.7h-12.1c0.4-6.7,3.1-11.2,7.6-14.3c4.5-2.7,10.7-4.5,17.4-4.5c6.3,0,11.2,1.3,15.6,4
		C1711.9,206.4,1714.1,210.4,1714.1,215.8z M1702,237.7v-8.9c-1.3,0.9-2.7,1.3-4,1.8c-1.3,0.4-3.6,0.9-5.8,0.9
		c-2.7,0.4-4,0.4-4.9,0.4c-3.1,0.4-5.4,1.3-7.1,2.7c-1.8,1.3-2.7,3.6-2.7,6.3c0,2.7,1.3,4.5,3.6,5.4c2.2,0.9,4.9,1.8,7.6,1.8
		c3.1,0,6.3-0.9,9.4-2.7C1700.7,243.9,1702,241.2,1702,237.7z"/>
	<path class="st1" d="M1725.7,246.6l40.2-17l-40.2-17v-10.7l54.5,24.1v7.1l-54.5,24.1V246.6z"/>
	<path class="st0" d="M1844.5,246.6v10.7l-54.5-24.1v-7.6l54.5-24.1v10.7l-40.2,17L1844.5,246.6z"/>
	<path class="st0" d="M1847.2,258.2l30.8-80.4h11.6l-30.8,80.4H1847.2z"/>
	<path class="st0" d="M1894.1,256.4V180h12.1v76.4C1906.2,256.4,1894.1,256.4,1894.1,256.4z"/>
	<path class="st0" d="M1920,191.6V180h12.1v11.6H1920z M1920,256.4V201h12.1v55.4C1932.1,256.4,1920,256.4,1920,256.4z"/>
	<path class="st0" d="M1944.2,246.6l40.2-17l-40.2-17v-10.7l54.5,24.1v7.1l-54.5,24.1V246.6z"/>
	<path class="st0" d="M234.5,426.6v10.7L180,413.2v-7.6l54.5-24.1v10.7l-40.2,17L234.5,426.6z"/>
	<path class="st0" d="M246.1,436.5v-76.4h12.5v76.4H246.1z"/>
	<path class="st0" d="M272.1,371.7v-11.6h12.1v11.6H272.1z M272.1,436.5v-55.4h12.1v55.4H272.1z"/>
	<path class="st0" d="M296.2,426.6l40.2-17l-40.2-17V382l54.5,24.1v7.6l-54.5,24.1V426.6z"/>
	<path class="st1" d="M415,426.6v10.7l-54.5-24.1v-7.6l54.5-24.1v10.7l-40.2,17L415,426.6z"/>
	<path class="st1" d="M472.6,395.8v28.6c0,1.3,0,2.7,0.4,3.1s1.3,0.9,2.2,0.9h1.3c0.4,0,0.9,0,1.8,0v8.5c-2.7,0.9-5.4,1.3-7.6,1.3
		c-5.4,0-8.5-2.2-9.4-6.7c-2.2,2.2-5.4,4-8.5,4.9c-3.6,1.3-7.1,1.8-10.7,1.8c-5.4,0-9.8-1.3-13.4-4c-3.6-2.7-5.4-6.7-5.4-12.1
		c0-3.1,0.4-6.3,1.8-8.5c1.3-2.2,3.1-4,5.4-5.4c2.2-1.3,4.5-2.2,6.7-2.7c2.2-0.4,4.5-0.9,8-1.3c1.3-0.4,3.1-0.4,4.9-0.9
		c1.8-0.4,3.6-0.4,4.9-0.4s2.2-0.4,3.6-0.9c1.3-0.4,2.2-1.3,2.7-1.8c0.4-0.9,0.9-1.8,0.9-3.6c0-4.9-4-7.6-11.6-7.6
		c-3.6,0-6.3,0.9-8.5,2.2s-3.6,3.6-3.6,6.7h-12.1c0.4-6.7,3.1-11.2,7.6-14.3c4.5-2.7,10.7-4.5,17.4-4.5c6.3,0,11.2,1.3,15.6,4
		C470.4,386.4,472.6,390.4,472.6,395.8z M460.6,418.1v-8.9c-1.3,0.9-2.7,1.3-4,1.8c-1.3,0.4-3.6,0.9-5.8,0.9c-2.7,0.4-4,0.4-4.9,0.4
		c-3.1,0.4-5.4,1.3-7.1,2.7c-1.8,1.3-2.7,3.6-2.7,6.3s1.3,4.5,3.6,5.4c2.2,0.9,4.9,1.8,7.6,1.8c3.1,0,6.3-0.9,9.4-2.7
		C459.2,423.9,460.6,421.7,460.6,418.1z"/>
	<path class="st1" d="M515.5,436.5v-76.4h12.1v28.6l0,0c1.8-2.7,4-4.5,6.7-6.3c3.1-1.8,6.3-2.7,9.8-2.7c6.3,0,11.2,1.8,14.3,4.9
		s5.4,8,5.4,13.8v38h-12.1v-34.8c0-4.5-0.9-7.6-2.7-9.4s-4.5-3.1-8-3.1c-4,0-7.1,1.3-9.8,4s-3.6,6.3-3.6,10.3V436h-12.1V436.5z"/>
	<path class="st1" d="M577.2,436.5v-55.4h11.6v10.7l0,0c0.9-3.1,2.7-5.8,5.8-8.5s6.7-4,10.3-4c0.9,0,2.2,0,4.5,0.4v11.6
		c-1.8-0.4-3.6-0.4-5.4-0.4c-4.5,0-8,1.8-10.7,4.9c-2.7,3.6-4.5,8-4.5,13.8V436h-11.6V436.5z"/>
	<path class="st1" d="M663.4,411.9h-40.7c0,4.5,1.3,8.5,4,11.6s6.3,4.9,11.2,4.9c6.7,0,11.2-3.1,13.4-9.4h11.6
		c-1.3,5.8-4,10.7-8.9,13.8c-4.9,3.1-9.8,4.9-16.1,4.9c-8.5,0-15.2-2.7-20.1-8c-4.9-5.4-7.1-12.5-7.1-21c0-8,2.7-15.2,7.6-20.5
		c4.9-5.8,11.6-8.5,19.2-8.5c8.5,0,15.2,3.1,20.1,9.8C662.5,396.2,664.3,403.4,663.4,411.9z M622.7,403.8h28.6
		c-0.4-4-1.8-7.6-4-10.3c-2.7-2.7-5.8-4.5-9.8-4.5s-7.6,1.3-10.3,4C624.1,396.2,622.7,399.8,622.7,403.8z"/>
	<path class="st1" d="M667.4,390.4v-8.9h8.9V377c0-6.3,1.3-10.7,4-13c2.7-2.2,6.7-3.6,11.2-3.6c4,0,6.7,0.4,8.5,0.9v9.4
		c-1.8-0.4-3.6-0.4-5.8-0.4c-4,0-5.8,1.8-5.8,5.8v5.8h10.3v8.9h-10.3v46.5h-12.1v-46.9H667.4z"/>
	<path class="st1" d="M759,393.1v10.7h-54.1v-10.7H759z M759,415v10.7h-54.1V415H759z"/>
	<path class="st1" d="M773.3,390.4v-30.4H784v30.4H773.3z M792,390.4v-30.4h10.7v30.4H792z"/>
	<path class="st1" d="M820.6,390.4v-30.4h10.7v30.4H820.6z M839.8,390.4v-30.4h10.7v30.4H839.8z"/>
	<path class="st1" d="M864.4,426.6l40.2-17l-40.2-17V382l54.5,24.1v7.6l-54.5,24.1V426.6z"/>
	<path class="st1" d="M927.4,411h13.4c0,5.4,1.8,9.8,5.4,12.5c3.6,2.7,8,4,13.8,4c5.4,0,9.4-1.3,12.1-3.6c2.7-2.2,4-4.9,4-8
		c0-4.9-2.2-8-6.3-9.4c-1.8-0.4-3.6-1.3-5.4-1.8c-2.2-0.4-4.9-1.3-8.5-2.2c-3.6-0.9-6.7-1.8-8.9-2.2c-11.2-3.1-17-9.4-17-19.2
		c0-7.1,2.7-13,8.5-16.5c5.4-4,12.1-5.8,19.7-5.8c8.5,0,15.2,2.2,21,6.7c5.8,4.5,8.5,10.3,8.5,17.9h-13.4
		c-0.9-8.9-6.3-13.4-16.5-13.4c-3.6,0-7.1,0.9-9.8,2.2c-2.7,1.8-4,4-4,7.6c0,4.9,3.1,8,8.9,9.8c0,0,1.8,0.4,4.9,1.3
		c3.1,0.9,6.7,1.8,10.3,2.7c3.6,0.9,5.8,1.8,6.7,1.8c4.9,1.3,8.5,4,11.2,7.6c2.7,3.6,4,7.6,4,12.1c0,4-0.9,7.6-2.7,11.2
		c-1.8,3.1-4,5.8-7.1,7.6c-3.1,1.8-6.3,3.1-9.8,4c-3.6,0.9-7.1,1.3-11.2,1.3c-9.4,0-17-2.2-22.8-6.7
		C930.5,427.1,927.4,420.4,927.4,411z"/>
	<path class="st1" d="M1045.8,430.2c-4.9,5.4-11.6,8-20.5,8c-8.5,0-15.6-2.7-20.5-8c-4.9-5.4-7.6-12.5-7.6-21c0-8.5,2.7-15.6,7.6-21
		c4.9-5.4,11.6-8,20.5-8c8.5,0,15.6,2.7,20.5,8c4.9,5.4,7.6,12.5,7.6,21C1053.4,417.7,1050.7,424.8,1045.8,430.2z M1013.6,422.6
		c2.7,4,6.7,5.8,11.6,5.8c4.9,0,8.9-1.8,11.6-5.8s4-8.5,4-13.8s-1.3-9.8-4-13.8c-2.7-4-6.7-5.8-11.6-5.8c-4.9,0-8.9,1.8-11.6,5.8
		c-2.7,4-4,8.5-4,13.8S1010.9,419,1013.6,422.6z"/>
	<path class="st1" d="M1063.2,436.5v-55.4h11.6v7.6h0.4c2.2-3.1,4.5-5.4,7.1-6.7c2.7-1.3,5.8-2.2,10.3-2.2c3.6,0,6.7,0.9,9.4,2.2
		c2.7,1.3,4.9,4,5.8,6.7c4.5-6.3,10.3-9.4,17.4-9.4c12.5,0,18.8,6.3,18.8,18.8v38.4H1132v-32.2c0-2.2,0-3.6,0-4.9
		c0-1.3-0.4-2.7-0.9-4c-0.4-1.3-0.9-2.7-1.8-3.1c-0.9-0.9-1.8-1.3-3.1-1.8c-1.3-0.4-2.7-0.9-4.9-0.9c-8,0-11.6,4.9-11.6,14.7v32.6
		h-12.1v-35.7c0-4-0.9-7.1-2.2-8.9c-1.3-1.8-4-2.7-7.6-2.7s-6.3,1.3-8.5,4s-3.6,6.3-3.6,10.3v33.1h-12.5V436.5z"/>
	<path class="st1" d="M1207.1,411.9h-40.7c0,4.5,1.3,8.5,4,11.6s6.3,4.9,11.2,4.9c6.7,0,11.2-3.1,13.4-9.4h11.6
		c-1.3,5.8-4,10.7-8.9,13.8c-4.9,3.1-9.8,4.9-16.1,4.9c-8.5,0-15.2-2.7-20.1-8c-4.9-5.4-7.1-12.5-7.1-21c0-8,2.7-15.2,7.6-20.5
		c4.9-5.8,11.6-8.5,19.2-8.5c8.5,0,15.2,3.1,20.1,9.8C1206.2,396.2,1208,403.4,1207.1,411.9z M1166,403.8h28.6
		c-0.4-4-1.8-7.6-4-10.3c-2.7-2.7-5.8-4.5-9.8-4.5c-4,0-7.6,1.3-10.3,4C1167.7,396.2,1166.4,399.8,1166,403.8z"/>
	<path class="st1" d="M1210.6,390.4v-8.9h9.4V365h12.1v16.5h11.2v8.9h-11.2v29.5c0,2.7,0.4,4.9,0.9,5.8c0.4,0.9,2.2,1.8,4.9,1.8
		c2.2,0,4,0,5.4-0.4v9.4c-3.6,0.4-6.3,0.4-8,0.4c-5.8,0-9.8-0.9-12.1-3.1s-3.1-5.8-3.1-10.7v-32.6H1210.6z"/>
	<path class="st1" d="M1251.7,436.5v-76.4h12.1v28.6l0,0c1.8-2.7,4-4.5,6.7-6.3c3.1-1.8,6.3-2.7,9.8-2.7c6.3,0,11.2,1.8,14.3,4.9
		c3.1,3.1,5.4,8,5.4,13.8v38h-12.1v-34.8c0-4.5-0.9-7.6-2.7-9.4s-4.5-3.1-8-3.1c-4,0-7.1,1.3-9.8,4c-2.7,2.7-3.6,6.3-3.6,10.3V436
		h-12.1V436.5z"/>
	<path class="st1" d="M1313.8,371.7v-11.6h12.1v11.6H1313.8z M1313.8,436.5v-55.4h12.1v55.4H1313.8z"/>
	<path class="st1" d="M1339.3,436.5v-55.4h11.6v8.5l0,0c1.8-3.1,4.5-5.4,7.6-7.1c3.1-1.8,6.3-2.7,9.8-2.7c6.3,0,11.2,1.8,14.3,4.9
		c3.1,3.1,5.4,8,5.4,13.8v38h-12.1v-34.8c0-4.5-0.9-7.6-2.7-9.4c-1.8-1.8-4.5-3.1-8-3.1c-4,0-7.1,1.3-9.8,4s-3.6,6.3-3.6,10.3V436
		h-12.5V436.5z"/>
	<path class="st1" d="M1452.3,381.1v52.7c0,8.5-2.2,14.3-7.1,18.8c-4.5,4-11.6,6.3-20.1,6.3c-4,0-7.6-0.4-11.2-1.3
		c-3.6-0.9-6.3-2.7-8.9-5.4c-2.7-2.7-4-6.3-4.5-10.3h12.1c0.9,3.1,2.2,5.4,4.5,6.7s5.4,1.8,8.9,1.8c9.4,0,14.3-4.9,14.3-14.3v-8.5
		l0,0c-1.8,3.1-4,5.4-7.1,7.1c-3.1,1.8-6.3,2.7-9.4,2.7c-5.8,0-10.3-1.3-14.3-4c-4-2.7-6.7-6.3-8-10.3c-1.3-4-2.7-8.9-2.7-14.7
		c0-7.6,2.2-14.3,6.7-19.7c4.5-5.4,10.7-8,18.3-8c8,0,13.4,3.1,16.5,8.9l0,0V382h12.1V381.1z M1425.1,427.1c4.9,0,8.9-1.8,11.2-5.8
		c2.7-3.6,3.6-8.5,3.6-13.8s-1.3-9.4-3.6-13c-2.7-3.6-6.3-5.4-11.2-5.4c-4.9,0-8.5,1.8-11.2,5.8c-2.2,3.6-3.6,8.5-3.6,13.4
		c0,4.9,1.3,9.4,3.6,13C1416.6,425.3,1420.1,427.1,1425.1,427.1z"/>
	<path class="st1" d="M1463,413.2v-11.6h31.3v11.6H1463z"/>
	<path class="st1" d="M1555.1,425.7v10.7h-51.4c0-11.6,5.4-21,16.5-28.6c1.3-0.9,3.1-2.2,5.8-4c2.7-1.8,4.9-3.6,6.3-4.5
		c1.3-1.3,3.1-2.7,4.9-4.5c1.8-1.8,3.1-3.6,4-5.4c0.9-1.8,1.3-4,1.3-6.3c0-3.6-0.9-6.7-2.7-9.4s-5.4-4-9.8-4c-8,0-12.5,6.3-13,18.8
		H1505c0-8.5,2.2-15.6,6.7-21s10.7-8,19.2-8c4.5,0,8,0.9,11.6,2.2c3.1,1.3,5.8,3.6,7.6,5.8c1.8,2.2,3.1,4.9,4,7.1
		c0.9,2.7,1.3,4.9,1.3,7.6c0,4.5-1.3,8.5-3.6,12.1c-2.2,3.6-4.9,6.7-8.5,9.4c-3.6,2.7-6.7,4.9-10.3,7.1c-3.6,2.2-6.7,4.5-9.4,6.7
		c-2.7,2.2-4.5,4.9-5.4,7.1h36.6V425.7z"/>
	<path class="st1" d="M1618.5,426.6v10.7l-54.5-24.1v-7.6l54.5-24.1v10.7l-40.2,17L1618.5,426.6z"/>
	<path class="st1" d="M1621.2,438.7l30.8-80.4h11.6l-30.8,80.4H1621.2z"/>
	<path class="st1" d="M1714.1,395.8v28.6c0,1.3,0,2.7,0.4,3.1c0.4,0.4,1.3,0.9,2.2,0.9h1.3c0.4,0,0.9,0,1.8,0v8.5
		c-2.7,0.9-5.4,1.3-7.6,1.3c-5.4,0-8.5-2.2-9.4-6.7c-2.2,2.2-5.4,4-8.5,4.9c-3.6,1.3-7.1,1.8-10.7,1.8c-5.4,0-9.8-1.3-13.4-4
		c-3.6-2.7-5.4-6.7-5.4-12.1c0-3.1,0.4-6.3,1.8-8.5c1.3-2.2,3.1-4,5.4-5.4s4.5-2.2,6.7-2.7c2.2-0.4,4.5-0.9,8-1.3
		c1.3-0.4,3.1-0.4,4.9-0.9c1.8-0.4,3.6-0.4,4.9-0.4c1.3,0,2.2-0.4,3.6-0.9s2.2-1.3,2.7-1.8c0.4-0.9,0.9-1.8,0.9-3.6
		c0-4.9-4-7.6-11.6-7.6c-3.6,0-6.3,0.9-8.5,2.2s-3.6,3.6-3.6,6.7h-12.1c0.4-6.7,3.1-11.2,7.6-14.3c4.5-2.7,10.7-4.5,17.4-4.5
		c6.3,0,11.2,1.3,15.6,4C1711.9,386.4,1714.1,390.4,1714.1,395.8z M1702,418.1v-8.9c-1.3,0.9-2.7,1.3-4,1.8
		c-1.3,0.4-3.6,0.9-5.8,0.9c-2.7,0.4-4,0.4-4.9,0.4c-3.1,0.4-5.4,1.3-7.1,2.7c-1.8,1.3-2.7,3.6-2.7,6.3s1.3,4.5,3.6,5.4
		c2.2,0.9,4.9,1.8,7.6,1.8c3.1,0,6.3-0.9,9.4-2.7C1700.7,423.9,1702,421.7,1702,418.1z"/>
	<path class="st1" d="M1725.7,426.6l40.2-17l-40.2-17V382l54.5,24.1v7.6l-54.5,24.1V426.6z"/>
	<path class="st0" d="M1844.5,426.6v10.7l-54.5-24.1v-7.6l54.5-24.1v10.7l-40.2,17L1844.5,426.6z"/>
	<path class="st0" d="M1847.2,438.7l30.8-80.4h11.6l-30.8,80.4H1847.2z"/>
	<path class="st0" d="M1894.1,436.5v-76.4h12.1v76.4H1894.1z"/>
	<path class="st0" d="M1920,371.7v-11.6h12.1v11.6H1920z M1920,436.5v-55.4h12.1v55.4H1920z"/>
	<path class="st0" d="M1944.2,426.6l40.2-17l-40.2-17V382l54.5,24.1v7.6l-54.5,24.1V426.6z"/>
	<path class="st0" d="M234.5,606.7v10.7L180,593.3v-7.6l54.5-24.1v10.7l-40.2,17L234.5,606.7z"/>
	<path class="st0" d="M246.1,616.9v-76.4h12.5v76.4H246.1z"/>
	<path class="st0" d="M272.1,551.7v-11.6h12.1v11.6H272.1z M272.1,616.9v-55.4h12.1v55.4H272.1z"/>
	<path class="st0" d="M296.2,606.7l40.2-17l-40.2-17V562l54.5,24.1v7.6l-54.5,24.1V606.7z"/>
	<path class="st1" d="M415,606.7v10.7l-54.5-24.1v-7.6l54.5-24.1v10.7l-40.2,17L415,606.7z"/>
	<path class="st1" d="M472.6,575.8v28.6c0,1.3,0,2.7,0.4,3.1c0.4,0.4,1.3,0.9,2.2,0.9h1.3c0.4,0,0.9,0,1.8,0v8.5
		c-2.7,0.9-5.4,1.3-7.6,1.3c-5.4,0-8.5-2.2-9.4-6.7c-2.2,2.2-5.4,4-8.5,4.9c-3.6,1.3-7.1,1.8-10.7,1.8c-5.4,0-9.8-1.3-13.4-4
		c-3.6-2.7-5.4-6.7-5.4-12.1c0-3.1,0.4-6.3,1.8-8.5c1.3-2.2,3.1-4,5.4-5.4c2.2-1.3,4.5-2.2,6.7-2.7c2.2-0.4,4.5-0.9,8-1.3
		c1.3-0.4,3.1-0.4,4.9-0.9c1.8-0.4,3.6-0.4,4.9-0.4s2.2-0.4,3.6-0.9c1.3-0.4,2.2-1.3,2.7-1.8c0.4-0.9,0.9-1.8,0.9-3.6
		c0-4.9-4-7.6-11.6-7.6c-3.6,0-6.3,0.9-8.5,2.2s-3.6,3.6-3.6,6.7h-12.1c0.4-6.7,3.1-11.2,7.6-14.3c4.5-2.7,10.7-4.5,17.4-4.5
		c6.3,0,11.2,1.3,15.6,4C470.4,566.5,472.6,570.5,472.6,575.8z M460.6,598.2v-8.9c-1.3,0.9-2.7,1.3-4,1.8c-1.3,0.4-3.6,0.9-5.8,0.9
		c-2.7,0.4-4,0.4-4.9,0.4c-3.1,0.4-5.4,1.3-7.1,2.7c-1.8,1.3-2.7,3.6-2.7,6.3c0,2.7,1.3,4.5,3.6,5.4s4.9,1.8,7.6,1.8
		c3.1,0,6.3-0.9,9.4-2.7C459.2,604.4,460.6,601.7,460.6,598.2z"/>
	<path class="st1" d="M515.5,616.9v-76.4h12.1v28.6l0,0c1.8-2.7,4-4.5,6.7-6.3c3.1-1.8,6.3-2.7,9.8-2.7c6.3,0,11.2,1.8,14.3,4.9
		s5.4,8,5.4,13.8v38h-12.1v-34.8c0-4.5-0.9-7.6-2.7-9.4s-4.5-3.1-8-3.1c-4,0-7.1,1.3-9.8,4c-2.7,2.7-3.6,6.3-3.6,10.3v32.6h-12.1
		V616.9z"/>
	<path class="st1" d="M577.2,616.9v-55.4h11.6v10.7l0,0c0.9-3.1,2.7-5.8,5.8-8.5c3.1-2.7,6.7-4,10.3-4c0.9,0,2.2,0,4.5,0.4v11.6
		c-1.8-0.4-3.6-0.4-5.4-0.4c-4.5,0-8,1.8-10.7,4.9c-2.7,3.6-4.5,8-4.5,13.8v26.4h-11.6V616.9z"/>
	<path class="st1" d="M663.4,592.4h-40.7c0,4.5,1.3,8.5,4,11.6c2.7,3.1,6.3,4.9,11.2,4.9c6.7,0,11.2-3.1,13.4-9.4h11.6
		c-1.3,5.8-4,10.7-8.9,13.8c-4.9,3.1-9.8,4.9-16.1,4.9c-8.5,0-15.2-2.7-20.1-8c-4.9-5.4-7.1-12.5-7.1-21c0-8,2.7-15.2,7.6-20.5
		c4.9-5.8,11.6-8.5,19.2-8.5c8.5,0,15.2,3.1,20.1,9.8C662.5,576.7,664.3,583.4,663.4,592.4z M622.7,584.3h28.6
		c-0.4-4-1.8-7.6-4-10.3c-2.7-2.7-5.8-4.5-9.8-4.5s-7.6,1.3-10.3,4C624.1,576.3,622.7,579.9,622.7,584.3z"/>
	<path class="st1" d="M667.4,570.5v-8.9h8.9v-4.5c0-6.3,1.3-10.7,4-13c2.7-2.2,6.7-3.6,11.2-3.6c4,0,6.7,0.4,8.5,0.9v9.4
		c-1.8-0.4-3.6-0.4-5.8-0.4c-4,0-5.8,1.8-5.8,5.8v5.8h10.3v8.9h-10.3v46.5h-12.1v-46.5h-8.9V570.5z"/>
	<path class="st1" d="M759,573.2v10.7h-54.1v-10.7H759z M759,595v10.7h-54.1V595H759z"/>
	<path class="st1" d="M773.3,570.5v-30.4H784v30.4H773.3z M792,570.5v-30.4h10.7v30.4H792z"/>
	<path class="st1" d="M820.6,570.5v-30.4h10.7v30.4H820.6z M839.8,570.5v-30.4h10.7v30.4H839.8z"/>
	<path class="st1" d="M864.4,606.7l40.2-17l-40.2-17V562l54.5,24.1v7.6l-54.5,24.1V606.7z"/>
	<path class="st1" d="M927.4,591.5h13.4c0,5.4,1.8,9.8,5.4,12.5c3.6,2.7,8,4,13.8,4c5.4,0,9.4-1.3,12.1-3.6c2.7-2.2,4-4.9,4-8
		c0-4.9-2.2-8-6.3-9.4c-1.8-0.4-3.6-1.3-5.4-1.8c-2.2-0.4-4.9-1.3-8.5-2.2c-3.6-0.9-6.7-1.8-8.9-2.2c-11.2-3.1-17-9.4-17-19.2
		c0-7.1,2.7-13,8.5-16.5c5.4-4,12.1-5.8,19.7-5.8c8.5,0,15.2,2.2,21,6.7c5.8,4.5,8.5,10.3,8.5,17.9h-13.4
		c-0.9-8.9-6.3-13.4-16.5-13.4c-3.6,0-7.1,0.9-9.8,2.2c-2.7,1.8-4,4-4,7.6c0,4.9,3.1,8,8.9,9.8c0,0,1.8,0.4,4.9,1.3
		c3.1,0.9,6.7,1.8,10.3,2.7c3.6,0.9,5.8,1.8,6.7,1.8c4.9,1.3,8.5,4,11.2,7.6c2.7,3.6,4,7.6,4,12.1c0,4-0.9,7.6-2.7,11.2
		c-1.8,3.1-4,5.8-7.1,7.6c-3.1,1.8-6.3,3.1-9.8,4s-7.1,1.3-11.2,1.3c-9.4,0-17-2.2-22.8-6.7C930.5,607.1,927.4,600.4,927.4,591.5z"
		/>
	<path class="st1" d="M1045.8,610.2c-4.9,5.4-11.6,8-20.5,8c-8.5,0-15.6-2.7-20.5-8c-4.9-5.4-7.6-12.5-7.6-21c0-8.5,2.7-15.6,7.6-21
		c4.9-5.4,11.6-8,20.5-8c8.5,0,15.6,2.7,20.5,8s7.6,12.5,7.6,21C1053.4,597.7,1050.7,604.9,1045.8,610.2z M1013.6,602.6
		c2.7,4,6.7,5.8,11.6,5.8c4.9,0,8.9-1.8,11.6-5.8c2.7-4,4-8.5,4-13.8c0-5.4-1.3-9.8-4-13.8c-2.7-4-6.7-5.8-11.6-5.8
		c-4.9,0-8.9,1.8-11.6,5.8c-2.7,4-4,8.5-4,13.8S1010.9,599.1,1013.6,602.6z"/>
	<path class="st1" d="M1063.2,616.9v-55.4h11.6v7.6h0.4c2.2-3.1,4.5-5.4,7.1-6.7s5.8-2.2,10.3-2.2c3.6,0,6.7,0.9,9.4,2.2
		c2.7,1.3,4.9,4,5.8,6.7c4.5-6.3,10.3-9.4,17.4-9.4c12.5,0,18.8,6.3,18.8,18.8v38.4H1132v-32.2c0-2.2,0-3.6,0-4.9s-0.4-2.7-0.9-4
		c-0.4-1.3-0.9-2.7-1.8-3.1c-0.9-0.9-1.8-1.3-3.1-1.8s-2.7-0.9-4.9-0.9c-8,0-11.6,4.9-11.6,14.7v32.6h-12.1v-35.7
		c0-4-0.9-7.1-2.2-8.9s-4-2.7-7.6-2.7s-6.3,1.3-8.5,4c-2.2,2.7-3.6,6.3-3.6,10.3v33.1h-12.5V616.9z"/>
	<path class="st1" d="M1207.1,592.4h-40.7c0,4.5,1.3,8.5,4,11.6c2.7,3.1,6.3,4.9,11.2,4.9c6.7,0,11.2-3.1,13.4-9.4h11.6
		c-1.3,5.8-4,10.7-8.9,13.8c-4.9,3.1-9.8,4.9-16.1,4.9c-8.5,0-15.2-2.7-20.1-8s-7.1-12.5-7.1-21c0-8,2.7-15.2,7.6-20.5
		c4.9-5.8,11.6-8.5,19.2-8.5c8.5,0,15.2,3.1,20.1,9.8C1206.2,576.7,1208,583.4,1207.1,592.4z M1166,584.3h28.6
		c-0.4-4-1.8-7.6-4-10.3c-2.7-2.7-5.8-4.5-9.8-4.5c-4,0-7.6,1.3-10.3,4C1167.7,576.3,1166.4,579.9,1166,584.3z"/>
	<path class="st1" d="M1210.6,570.5v-8.9h9.4V545h12.1v16.5h11.2v8.9h-11.2V600c0,2.7,0.4,4.9,0.9,5.8c0.4,0.9,2.2,1.8,4.9,1.8
		c2.2,0,4,0,5.4-0.4v9.4c-3.6,0.4-6.3,0.4-8,0.4c-5.8,0-9.8-0.9-12.1-3.1s-3.1-5.8-3.1-10.7v-32.6L1210.6,570.5L1210.6,570.5z"/>
	<path class="st1" d="M1251.7,616.9v-76.4h12.1v28.6l0,0c1.8-2.7,4-4.5,6.7-6.3c3.1-1.8,6.3-2.7,9.8-2.7c6.3,0,11.2,1.8,14.3,4.9
		c3.1,3.1,5.4,8,5.4,13.8v38h-12.1v-34.8c0-4.5-0.9-7.6-2.7-9.4s-4.5-3.1-8-3.1c-4,0-7.1,1.3-9.8,4c-2.7,2.7-3.6,6.3-3.6,10.3v32.6
		h-12.1V616.9z"/>
	<path class="st1" d="M1313.8,551.7v-11.6h12.1v11.6H1313.8z M1313.8,616.9v-55.4h12.1v55.4H1313.8z"/>
	<path class="st1" d="M1339.3,616.9v-55.4h11.6v8l0,0c1.8-3.1,4.5-5.4,7.6-7.1c3.1-1.8,6.3-2.7,9.8-2.7c6.3,0,11.2,1.8,14.3,4.9
		c3.1,3.1,5.4,8,5.4,13.8v38h-12.1v-34.8c0-4.5-0.9-7.6-2.7-9.4c-1.8-1.8-4.5-3.1-8-3.1c-4,0-7.1,1.3-9.8,4
		c-2.7,2.7-3.6,6.3-3.6,10.3V616h-12.5V616.9z"/>
	<path class="st1" d="M1452.3,561.5v52.7c0,8.5-2.2,14.3-7.1,18.8c-4.5,4-11.6,6.3-20.1,6.3c-4,0-7.6-0.4-11.2-1.3
		c-3.6-0.9-6.3-2.7-8.9-5.4c-2.7-2.7-4-6.3-4.5-10.3h12.1c0.9,3.1,2.2,5.4,4.5,6.7c2.2,1.3,5.4,1.8,8.9,1.8
		c9.4,0,14.3-4.9,14.3-14.3V608l0,0c-1.8,3.1-4,5.4-7.1,7.1c-3.1,1.8-6.3,2.7-9.4,2.7c-5.8,0-10.3-1.3-14.3-4c-4-2.7-6.7-6.3-8-10.3
		c-1.3-4-2.7-8.9-2.7-14.7c0-7.6,2.2-14.3,6.7-19.7c4.5-5.4,10.7-8,18.3-8c8,0,13.4,3.1,16.5,8.9l0,0v-7.6h12.1V561.5z
		 M1425.1,607.1c4.9,0,8.9-1.8,11.2-5.8c2.7-3.6,3.6-8.5,3.6-13.8c0-5.4-1.3-9.4-3.6-13c-2.7-3.6-6.3-5.4-11.2-5.4
		c-4.9,0-8.5,1.8-11.2,5.8c-2.2,3.6-3.6,8.5-3.6,13.4c0,4.9,1.3,9.4,3.6,13C1416.6,605.3,1420.1,607.1,1425.1,607.1z"/>
	<path class="st1" d="M1463,593.3v-11.6h31.3v11.6H1463z"/>
	<path class="st1" d="M1524.2,582.1v-8.9c4.5,0,8.5-0.4,11.6-2.7c3.1-1.8,4.9-4.9,4.9-9.4c0-3.1-0.9-5.8-3.1-7.6
		c-2.2-1.8-4.9-2.7-8.5-2.7c-4,0-7.1,1.3-9.4,4.5c-2.2,3.1-3.1,6.7-3.1,10.7h-12.1c0.4-7.6,2.7-13.4,7.1-18.3s10.3-7.1,17.9-7.1
		c6.3,0,12.1,1.8,16.5,5.4c4.9,3.6,7.1,8.5,7.1,14.7c0,8-3.6,13.4-10.7,16.1l0,0c4.5,0.9,7.6,3.1,9.8,6.3s3.6,7.6,3.6,12.5
		c0,6.7-2.7,12.5-7.6,16.5c-5.4,4-11.6,6.3-18.8,6.3c-8.5,0-14.7-2.2-19.2-7.1c-4.5-4.5-6.7-11.2-7.1-19.2h12.1
		c0,4.9,0.9,8.5,3.6,11.6c2.7,3.1,5.8,4.5,10.7,4.5c4,0,7.6-1.3,10.3-3.6c2.7-2.2,4-5.8,4-9.8c0-2.7-0.4-4.9-1.8-6.7
		c-1.3-1.8-2.7-3.1-4.5-4c-1.8-0.9-4-1.3-6.3-1.8C1529.1,582.1,1526.9,581.6,1524.2,582.1z"/>
	<path class="st1" d="M1618.5,606.7v10.7l-54.5-24.1v-7.6l54.5-24.1v10.7l-40.2,17L1618.5,606.7z"/>
	<path class="st1" d="M1621.2,618.7l30.8-80.4h11.6l-30.8,80.4H1621.2z"/>
	<path class="st1" d="M1714.1,575.8v28.6c0,1.3,0,2.7,0.4,3.1c0.4,0.4,1.3,0.9,2.2,0.9h1.3c0.4,0,0.9,0,1.8,0v8.5
		c-2.7,0.9-5.4,1.3-7.6,1.3c-5.4,0-8.5-2.2-9.4-6.7c-2.2,2.2-5.4,4-8.5,4.9c-3.6,1.3-7.1,1.8-10.7,1.8c-5.4,0-9.8-1.3-13.4-4
		s-5.4-6.7-5.4-12.1c0-3.1,0.4-6.3,1.8-8.5c1.3-2.2,3.1-4,5.4-5.4s4.5-2.2,6.7-2.7c2.2-0.4,4.5-0.9,8-1.3c1.3-0.4,3.1-0.4,4.9-0.9
		c1.8-0.4,3.6-0.4,4.9-0.4c1.3,0,2.2-0.4,3.6-0.9c1.3-0.4,2.2-1.3,2.7-1.8c0.4-0.9,0.9-1.8,0.9-3.6c0-4.9-4-7.6-11.6-7.6
		c-3.6,0-6.3,0.9-8.5,2.2s-3.6,3.6-3.6,6.7h-12.1c0.4-6.7,3.1-11.2,7.6-14.3c4.5-2.7,10.7-4.5,17.4-4.5c6.3,0,11.2,1.3,15.6,4
		C1711.9,566.5,1714.1,570.5,1714.1,575.8z M1702,598.2v-8.9c-1.3,0.9-2.7,1.3-4,1.8c-1.3,0.4-3.6,0.9-5.8,0.9
		c-2.7,0.4-4,0.4-4.9,0.4c-3.1,0.4-5.4,1.3-7.1,2.7c-1.8,1.3-2.7,3.6-2.7,6.3c0,2.7,1.3,4.5,3.6,5.4s4.9,1.8,7.6,1.8
		c3.1,0,6.3-0.9,9.4-2.7C1700.7,604.4,1702,601.7,1702,598.2z"/>
	<path class="st1" d="M1725.7,606.7l40.2-17l-40.2-17V562l54.5,24.1v7.6l-54.5,24.1V606.7z"/>
	<path class="st0" d="M1844.5,606.7v10.7l-54.5-24.1v-7.6l54.5-24.1v10.7l-40.2,17L1844.5,606.7z"/>
	<path class="st0" d="M1847.2,618.7l30.8-80.4h11.6l-30.8,80.4H1847.2z"/>
	<path class="st0" d="M1894.1,616.9v-76.4h12.1v76.4H1894.1z"/>
	<path class="st0" d="M1920,551.7v-11.6h12.1v11.6H1920z M1920,616.9v-55.4h12.1v55.4H1920z"/>
	<path class="st0" d="M1944.2,606.7l40.2-17l-40.2-17V562l54.5,24.1v7.6l-54.5,24.1V606.7z"/>
	<path class="st0" d="M234.5,786.7v10.7L180,773.7v-7.6l54.5-24.1v10.7l-40.2,17L234.5,786.7z"/>
	<path class="st0" d="M246.1,797v-76.8h12.5v76.4h-12.5V797z"/>
	<path class="st0" d="M272.1,731.7v-11.6h12.1v11.6H272.1z M272.1,797v-55.4h12.1V797H272.1z"/>
	<path class="st0" d="M296.2,786.7l40.2-17l-40.2-17V742l54.5,24.1v7.6l-54.5,24.1V786.7z"/>
	<path class="st1" d="M415,786.7v10.7l-54.5-23.7v-7.6L415,742v10.7l-40.2,17L415,786.7z"/>
	<path class="st1" d="M472.6,755.9v28.6c0,1.3,0,2.7,0.4,3.1c0.4,0.4,1.3,0.9,2.2,0.9h1.3c0.4,0,0.9,0,1.8,0v8.5
		c-2.7,0.9-5.4,1.3-7.6,1.3c-5.4,0-8.5-2.2-9.4-6.7c-2.2,2.2-5.4,4-8.5,4.9c-3.6,1.3-7.1,1.8-10.7,1.8c-5.4,0-9.8-1.3-13.4-4
		c-3.6-2.7-5.4-6.7-5.4-12.1c0-3.1,0.4-6.3,1.8-8.5c1.3-2.2,3.1-4,5.4-5.4c2.2-1.3,4.5-2.2,6.7-2.7c2.2-0.4,4.5-0.9,8-1.3
		c1.3-0.4,3.1-0.4,4.9-0.9c1.8-0.4,3.6-0.4,4.9-0.4s2.2-0.4,3.6-0.9c1.3-0.4,2.2-1.3,2.7-1.8c0.4-0.9,0.9-1.8,0.9-3.6
		c0-4.9-4-7.6-11.6-7.6c-3.6,0-6.3,0.9-8.5,2.2c-2.2,1.3-3.6,3.6-3.6,6.7h-12.1c0.4-6.7,3.1-11.2,7.6-14.3
		c4.5-2.7,10.7-4.5,17.4-4.5c6.3,0,11.2,1.3,15.6,4C470.4,746.5,472.6,750.5,472.6,755.9z M460.6,778.2v-8.9c-1.3,0.9-2.7,1.3-4,1.8
		c-1.3,0.4-3.6,0.9-5.8,0.9c-2.7,0.4-4,0.4-4.9,0.4c-3.1,0.4-5.4,1.3-7.1,2.7c-1.8,1.3-2.7,3.6-2.7,6.3s1.3,4.5,3.6,5.4
		s4.9,1.8,7.6,1.8c3.1,0,6.3-0.9,9.4-2.7C459.2,784.5,460.6,781.8,460.6,778.2z"/>
	<path class="st1" d="M515.5,797v-76.8h12.1v28.6l0,0c1.8-2.7,4-4.5,6.7-6.3c3.1-1.8,6.3-2.7,9.8-2.7c6.3,0,11.2,1.8,14.3,4.9
		s5.4,8,5.4,13.8v38h-12.1v-34.8c0-4.5-0.9-7.6-2.7-9.4s-4.5-3.1-8-3.1c-4,0-7.1,1.3-9.8,4c-2.7,2.7-3.6,6.3-3.6,10.3v32.6h-12.1
		V797z"/>
	<path class="st1" d="M577.2,797v-55.4h11.6v10.7l0,0c0.9-3.1,2.7-5.8,5.8-8.5c3.1-2.7,6.7-4,10.3-4c0.9,0,2.2,0,4.5,0.4v11.6
		c-1.8-0.4-3.6-0.4-5.4-0.4c-4.5,0-8,1.8-10.7,4.9c-2.7,3.6-4.5,8-4.5,13.8v26.4h-11.6V797z"/>
	<path class="st1" d="M663.4,772.4h-40.7c0,4.5,1.3,8.5,4,11.6c2.7,3.1,6.3,4.9,11.2,4.9c6.7,0,11.2-3.1,13.4-9.4h11.6
		c-1.3,5.8-4,10.7-8.9,13.8c-4.9,3.1-9.8,4.9-16.1,4.9c-8.5,0-15.2-2.7-20.1-8c-4.9-5.4-7.1-12.5-7.1-21c0-8,2.7-15.2,7.6-20.5
		c4.9-5.8,11.6-8.5,19.2-8.5c8.5,0,15.2,3.1,20.1,9.8C662.5,756.8,664.3,763.9,663.4,772.4z M622.7,764.4h28.6
		c-0.4-4-1.8-7.6-4-10.3c-2.7-2.7-5.8-4.5-9.8-4.5s-7.6,1.3-10.3,4C624.1,756.8,622.7,759.9,622.7,764.4z"/>
	<path class="st1" d="M667.4,750.5v-8.9h8.9v-4.5c0-6.3,1.3-10.7,4-13c2.7-2.2,6.7-3.6,11.2-3.6c4,0,6.7,0.4,8.5,0.9v9.4
		c-1.8-0.4-3.6-0.4-5.8-0.4c-4,0-5.8,1.8-5.8,5.8v5.8h10.3v8.9h-10.3v46.5h-12.1v-46.5h-8.9V750.5z"/>
	<path class="st1" d="M759,753.6v10.7h-54.1v-10.7H759z M759,775.1v10.7h-54.1v-10.7H759z"/>
	<path class="st1" d="M773.3,750.5v-30.4H784v30.4H773.3z M792,750.5v-30.4h10.7v30.4H792z"/>
	<path class="st1" d="M820.6,750.5v-30.4h10.7v30.4H820.6z M839.8,750.5v-30.4h10.7v30.4H839.8z"/>
	<path class="st1" d="M864.4,786.7l40.2-17l-40.2-17V742l54.5,24.1v7.6l-54.5,24.1V786.7z"/>
	<path class="st1" d="M927.4,771.5h13.4c0,5.4,1.8,9.8,5.4,12.5c3.6,2.7,8,4,13.8,4c5.4,0,9.4-1.3,12.1-3.6c2.7-2.2,4-4.9,4-8
		c0-4.9-2.2-8-6.3-9.4c-1.8-0.4-3.6-1.3-5.4-1.8c-2.2-0.4-4.9-1.3-8.5-2.2c-3.6-0.9-6.7-1.8-8.9-2.2c-11.2-3.1-17-9.4-17-19.2
		c0-7.1,2.7-13,8.5-16.5c5.4-4,12.1-5.8,19.7-5.8c8.5,0,15.2,2.2,21,6.7s8.5,10.3,8.5,17.9h-13.4c-0.9-8.9-6.3-13.4-16.5-13.4
		c-3.6,0-7.1,0.9-9.8,2.2c-2.7,1.8-4,4-4,7.6c0,4.9,3.1,8,8.9,9.8c0,0,1.8,0.4,4.9,1.3c3.1,0.9,6.7,1.8,10.3,2.7
		c3.6,0.9,5.8,1.8,6.7,1.8c4.9,1.3,8.5,4,11.2,7.6c2.7,3.6,4,7.6,4,12.1c0,4-0.9,7.6-2.7,11.2c-1.8,3.1-4,5.8-7.1,7.6
		c-3.1,1.8-6.3,3.1-9.8,4s-7.1,1.3-11.2,1.3c-9.4,0-17-2.2-22.8-6.7C930.5,787.1,927.4,780.4,927.4,771.5z"/>
	<path class="st1" d="M1045.8,790.3c-4.9,5.4-11.6,8-20.5,8c-8.5,0-15.6-2.7-20.5-8c-4.9-5.4-7.6-12.5-7.6-21s2.7-15.6,7.6-21
		c4.9-5.4,11.6-8,20.5-8c8.5,0,15.6,2.7,20.5,8s7.6,12.5,7.6,21S1050.7,784.9,1045.8,790.3z M1013.6,783.1c2.7,4,6.7,5.8,11.6,5.8
		c4.9,0,8.9-1.8,11.6-5.8c2.7-4,4-8.5,4-13.8c0-5.4-1.3-9.8-4-13.8c-2.7-4-6.7-5.8-11.6-5.8c-4.9,0-8.9,1.8-11.6,5.8
		c-2.7,4-4,8.5-4,13.8C1009.6,774.6,1010.9,779.1,1013.6,783.1z"/>
	<path class="st1" d="M1063.2,797v-55.4h11.6v7.6h0.4c2.2-3.1,4.5-5.4,7.1-6.7s5.8-2.2,10.3-2.2c3.6,0,6.7,0.9,9.4,2.2
		c2.7,1.3,4.9,4,5.8,6.7c4.5-6.3,10.3-9.4,17.4-9.4c12.5,0,18.8,6.3,18.8,18.8V797H1132v-32.2c0-2.2,0-3.6,0-4.9
		c0-1.3-0.4-2.7-0.9-4c-0.4-1.3-0.9-2.7-1.8-3.1c-0.9-0.9-1.8-1.3-3.1-1.8c-1.3-0.4-2.7-0.9-4.9-0.9c-8,0-11.6,4.9-11.6,14.7v32.6
		h-12.1v-35.7c0-4-0.9-7.1-2.2-8.9c-1.3-1.8-4-2.7-7.6-2.7s-6.3,1.3-8.5,4c-2.2,2.7-3.6,6.3-3.6,10.3v33.1h-12.5V797z"/>
	<path class="st1" d="M1207.1,772.4h-40.7c0,4.5,1.3,8.5,4,11.6c2.7,3.1,6.3,4.9,11.2,4.9c6.7,0,11.2-3.1,13.4-9.4h11.6
		c-1.3,5.8-4,10.7-8.9,13.8c-4.9,3.1-9.8,4.9-16.1,4.9c-8.5,0-15.2-2.7-20.1-8s-7.1-12.5-7.1-21c0-8,2.7-15.2,7.6-20.5
		c4.9-5.8,11.6-8.5,19.2-8.5c8.5,0,15.2,3.1,20.1,9.8C1206.2,756.8,1208,763.9,1207.1,772.4z M1166,764.4h28.6
		c-0.4-4-1.8-7.6-4-10.3c-2.7-2.7-5.8-4.5-9.8-4.5c-4,0-7.6,1.3-10.3,4C1167.7,756.8,1166.4,759.9,1166,764.4z"/>
	<path class="st1" d="M1210.6,750.5v-8.9h9.4V725h12.1v16.5h11.2v8.9h-11.2V780c0,2.7,0.4,4.9,0.9,5.8c0.4,0.9,2.2,1.8,4.9,1.8
		c2.2,0,4,0,5.4-0.4v9.4c-3.6,0.4-6.3,0.4-8,0.4c-5.8,0-9.8-0.9-12.1-3.1s-3.1-5.8-3.1-10.7v-32.6L1210.6,750.5L1210.6,750.5z"/>
	<path class="st1" d="M1251.7,797v-76.8h12.1v28.6l0,0c1.8-2.7,4-4.5,6.7-6.3c3.1-1.8,6.3-2.7,9.8-2.7c6.3,0,11.2,1.8,14.3,4.9
		c3.1,3.1,5.4,8,5.4,13.8v38h-12.1v-34.8c0-4.5-0.9-7.6-2.7-9.4s-4.5-3.1-8-3.1c-4,0-7.1,1.3-9.8,4c-2.7,2.7-3.6,6.3-3.6,10.3v32.6
		h-12.1V797z"/>
	<path class="st1" d="M1313.8,731.7v-11.6h12.1v11.6H1313.8z M1313.8,797v-55.4h12.1V797H1313.8z"/>
	<path class="st1" d="M1339.3,797v-55.4h11.6v8l0,0c1.8-3.1,4.5-5.4,7.6-7.1c3.1-1.8,6.3-2.7,9.8-2.7c6.3,0,11.2,1.8,14.3,4.9
		c3.1,3.1,5.4,8,5.4,13.8v38h-12.1v-34.8c0-4.5-0.9-7.6-2.7-9.4c-1.8-1.8-4.5-3.1-8-3.1c-4,0-7.1,1.3-9.8,4
		c-2.7,2.7-3.6,6.3-3.6,10.3v32.6h-12.5V797z"/>
	<path class="st1" d="M1452.3,741.6v52.7c0,8.5-2.2,14.3-7.1,18.8c-4.5,4-11.6,6.3-20.1,6.3c-4,0-7.6-0.4-11.2-1.3
		c-3.6-0.9-6.3-2.7-8.9-5.4c-2.7-2.7-4-6.3-4.5-10.3h12.1c0.9,3.1,2.2,5.4,4.5,6.7s5.4,1.8,8.9,1.8c9.4,0,14.3-4.9,14.3-14.3v-9.4
		l0,0c-1.8,3.1-4,5.4-7.1,7.1c-3.1,1.8-6.3,2.7-9.4,2.7c-5.8,0-10.3-1.3-14.3-4c-4-2.7-6.7-6.3-8-10.3c-1.3-4-2.7-8.9-2.7-14.7
		c0-7.6,2.2-14.3,6.7-19.7c4.5-5.4,10.7-8,18.3-8c8,0,13.4,3.1,16.5,8.9l0,0v-7.6L1452.3,741.6L1452.3,741.6z M1425.1,787.1
		c4.9,0,8.9-1.8,11.2-5.8c2.7-3.6,3.6-8.5,3.6-13.8c0-5.4-1.3-9.4-3.6-13c-2.7-3.6-6.3-5.4-11.2-5.4c-4.9,0-8.5,1.8-11.2,5.8
		c-2.2,3.6-3.6,8.5-3.6,13.4c0,4.9,1.3,9.4,3.6,13C1416.6,785.3,1420.1,787.1,1425.1,787.1z"/>
	<path class="st1" d="M1463,773.7v-11.6h31.3v11.6H1463z"/>
	<path class="st1" d="M1555.5,769.3v9.8h-9.8V797h-11.6v-17.9h-32.2V767l32.2-45.1h11.6v47.4H1555.5z M1534.1,736.2l-22.3,33.1h22.8
		L1534.1,736.2L1534.1,736.2z"/>
	<path class="st1" d="M1618.5,786.7v10.7l-54.5-24.1v-7.6l54.5-24.1v10.7l-40.2,17L1618.5,786.7z"/>
	<path class="st1" d="M1621.2,798.7l30.8-80.4h11.6l-30.8,80.4H1621.2z"/>
	<path class="st1" d="M1714.1,755.9v28.6c0,1.3,0,2.7,0.4,3.1c0.4,0.4,1.3,0.9,2.2,0.9h1.3c0.4,0,0.9,0,1.8,0v8.5
		c-2.7,0.9-5.4,1.3-7.6,1.3c-5.4,0-8.5-2.2-9.4-6.7c-2.2,2.2-5.4,4-8.5,4.9c-3.6,1.3-7.1,1.8-10.7,1.8c-5.4,0-9.8-1.3-13.4-4
		c-3.6-2.7-5.4-6.7-5.4-12.1c0-3.1,0.4-6.3,1.8-8.5c1.3-2.2,3.1-4,5.4-5.4s4.5-2.2,6.7-2.7c2.2-0.4,4.5-0.9,8-1.3
		c1.3-0.4,3.1-0.4,4.9-0.9c1.8-0.4,3.6-0.4,4.9-0.4c1.3,0,2.2-0.4,3.6-0.9c1.3-0.4,2.2-1.3,2.7-1.8c0.4-0.9,0.9-1.8,0.9-3.6
		c0-4.9-4-7.6-11.6-7.6c-3.6,0-6.3,0.9-8.5,2.2c-2.2,1.3-3.6,3.6-3.6,6.7h-12.1c0.4-6.7,3.1-11.2,7.6-14.3
		c4.5-2.7,10.7-4.5,17.4-4.5c6.3,0,11.2,1.3,15.6,4C1711.9,746.5,1714.1,750.5,1714.1,755.9z M1702,778.2v-8.9
		c-1.3,0.9-2.7,1.3-4,1.8c-1.3,0.4-3.6,0.9-5.8,0.9c-2.7,0.4-4,0.4-4.9,0.4c-3.1,0.4-5.4,1.3-7.1,2.7c-1.8,1.3-2.7,3.6-2.7,6.3
		s1.3,4.5,3.6,5.4s4.9,1.8,7.6,1.8c3.1,0,6.3-0.9,9.4-2.7C1700.7,784.5,1702,781.8,1702,778.2z"/>
	<path class="st1" d="M1725.7,786.7l40.2-17l-40.2-17V742l54.5,24.1v7.6l-54.5,24.1V786.7z"/>
	<path class="st0" d="M1844.5,786.7v10.7l-54.5-24.1v-7.6l54.5-24.1v10.7l-40.2,17L1844.5,786.7z"/>
	<path class="st0" d="M1847.2,798.7l30.8-80.4h11.6l-30.8,80.4H1847.2z"/>
	<path class="st0" d="M1894.1,797v-76.8h12.1v76.4h-12.1V797z"/>
	<path class="st0" d="M1920,731.7v-11.6h12.1v11.6H1920z M1920,797v-55.4h12.1V797H1920z"/>
	<path class="st0" d="M1944.2,786.7l40.2-17l-40.2-17V742l54.5,24.1v7.6l-54.5,24.1V786.7z"/>
	<path class="st0" d="M55.8,966.7v10.7L1.3,953.3v-7.6l54.5-24.1v10.7l-40.2,17L55.8,966.7z"/>
	<path class="st0" d="M58.5,978.8l30.8-80.4H101l-30.8,80.4H58.5z"/>
	<path class="st0" d="M153.7,921.6V977h-12.1v-7.6l0,0c-1.3,2.7-3.6,4.9-6.7,6.7c-3.1,1.8-5.8,2.7-8.9,2.7c-7.1,0-12.5-1.8-15.6-5.4
		c-3.1-3.6-4.9-8.9-4.9-16.5v-35.3h12.1v34c0,4.9,0.9,8,2.7,10.3c1.8,2.2,4.5,3.1,8,3.1c8.9,0,13.4-4.9,13.4-15.2v-32.2L153.7,921.6
		L153.7,921.6z"/>
	<path class="st0" d="M166.6,977v-76.4h12.1V977H166.6z"/>
	<path class="st0" d="M190.8,966.7l40.2-17l-40.2-17V922l54.5,24.1v7.6l-54.5,24.1V966.7z"/>
</g>
</svg>
