<?xml version="1.0" encoding="utf-8"?>
<!-- Generator: Adobe Illustrator 25.0.0, SVG Export Plug-In . SVG Version: 6.00 Build 0)  -->
<svg version="1.1" id="Layer_1" xmlns="http://www.w3.org/2000/svg" xmlns:xlink="http://www.w3.org/1999/xlink" x="0px" y="0px"
	 viewBox="0 0 600 668" style="enable-background:new 0 0 600 668;" xml:space="preserve">
<style type="text/css">
	.st0{clip-path:url(#SVGID_2_);}
	.st1{opacity:0.1;fill:#FFFFFF;stroke:#FFFFFF;stroke-width:0.5;stroke-miterlimit:10;}
	.st2{fill:url(#Vector_1_);}
	.st3{fill:#F57E21;}
	.st4{fill:#F6DF18;}
	.st5{fill:#E34E26;}
	.st6{fill:#F0662A;}
	.st7{fill:#EBEBEB;}
	.st8{fill:#FFFFFF;}
	.st9{fill:#2163AF;}
	.st10{fill:#3D9BD6;}
	.st11{fill:url(#Vector-15_1_);}
	.st12{fill:url(#Vector-16_1_);}
	.st13{fill:url(#Vector-17_1_);}
	.st14{opacity:5.000000e-02;}
	.st15{opacity:5.000000e-02;enable-background:new    ;}
	.st16{fill:url(#Vector-20_1_);}
	.st17{fill:url(#Vector-22_1_);}
	.st18{fill:#EE458B;}
	.st19{fill:url(#Vector-24_1_);}
	.st20{fill:#34C5EF;}
	.st21{fill:#47BA7E;}
	.st22{fill:#8062AA;}
	.st23{fill:#F04F23;}
	.st24{fill:#F37264;}
	.st25{fill:#46B8E9;}
	.st26{fill:url(#Vector-32_1_);}
	.st27{fill:#C3A3CD;}
	.st28{fill:#BB82B9;}
</style>
<g>
	<defs>
		<rect id="SVGID_1_" x="-0.5" width="600" height="668"/>
	</defs>
	<clipPath id="SVGID_2_">
		<use xlink:href="#SVGID_1_"  style="overflow:visible;"/>
	</clipPath>
	<g class="st0">
		<rect y="-51.5" class="st1" width="90.1" height="90.1"/>
		<rect x="518.4" y="-51.5" class="st1" width="90.1" height="90.1"/>
		<g id="logo_AI">
			
				<radialGradient id="Vector_1_" cx="-212.0182" cy="72.3238" r="0.6746" gradientTransform="matrix(31.3208 0 0 -30.6129 6806.2627 2388.4858)" gradientUnits="userSpaceOnUse">
				<stop  offset="0" style="stop-color:#423325;stop-opacity:0.98"/>
				<stop  offset="1" style="stop-color:#1F1009"/>
			</radialGradient>
			<path id="Vector" class="st2" d="M144.4,153.8h42.5v41.3h-42.5V153.8z"/>
			<path id="Vector-2" class="st3" d="M144.4,153.8h42.5v41.3h-42.5V153.8z M142.5,197h46.3v-45.2h-46.3V197z M172.9,168
				c0-0.2,0.1-0.2,0.2-0.2h3c0.2,0,0.2,0.1,0.2,0.2v15.2c0,0.2,0,0.2-0.2,0.2h-3c-0.2,0-0.3-0.1-0.3-0.3L172.9,168L172.9,168z
				 M172.7,163.6c0-1.1,0.9-2,2-2c1.1,0,2,0.9,2,2l0,0c0.1,1-0.7,1.9-1.7,2c-0.1,0-0.2,0-0.3,0c-1,0.1-1.9-0.7-1.9-1.7
				C172.7,163.8,172.7,163.7,172.7,163.6z M164,174.3c-0.5-2.1-1.8-6.8-2.3-9.1h0c-0.4,2.3-1.4,6.1-2.2,9.1H164z M158.6,177.4
				l-1.5,5.8c0,0.2-0.1,0.2-0.3,0.2H154c-0.2,0-0.2-0.1-0.2-0.3l5.5-19.2c0.1-0.5,0.2-1.1,0.2-1.6c0-0.1,0.1-0.2,0.2-0.2h4.1
				c0.1,0,0.2,0,0.2,0.2l6.1,20.8c0,0.2,0,0.3-0.2,0.3h-3.2c-0.2,0-0.3,0-0.3-0.2l-1.6-5.8L158.6,177.4z"/>
		</g>
		<g id="Frame" transform="translate(304.157 107.581)">
			<g id="Group">
				<path id="Vector-3" class="st4" d="M-27.2-9.6h42.9v42.9h-42.9V-9.6z"/>
				<path id="Vector-4" d="M-15.9,26.3l3.3-2c0.6,1.1,1.2,2.1,2.6,2.1c1.3,0,2.2-0.5,2.2-2.5V10.1h4v13.8c0,4.2-2.4,6.1-6,6.1
					C-12.4,30.1-14.8,28.6-15.9,26.3z"/>
				<path id="Vector-5" d="M-1.6,25.8l3.3-1.9c0.7,1.5,2.3,2.5,4,2.4c1.7,0,2.7-0.8,2.7-2c0-1.4-1.1-1.9-2.9-2.7l-1-0.4
					c-2.9-1.2-4.8-2.8-4.8-6.1c0-3,2.3-5.3,5.9-5.3c2.4-0.2,4.6,1.1,5.7,3.2l-3.1,2c-0.4-1.1-1.5-1.7-2.6-1.7
					c-1-0.1-1.8,0.6-1.9,1.6c0,0,0,0.1,0,0.1c0,1.2,0.8,1.7,2.5,2.4l1,0.4c3.4,1.5,5.4,3,5.4,6.3c0,3.6-2.9,5.6-6.7,5.6
					C2,30-0.4,28.2-1.6,25.8z"/>
			</g>
		</g>
		<g id="logo_HTML">
			<path id="Vector-6" class="st5" d="M149.5,74.3l-3.6-40.7h39.8l-3.6,40.7l-16.3,4.5L149.5,74.3z"/>
			<path id="Vector-7" class="st6" d="M165.8,75.3l13.2-3.7l3.1-34.7h-16.3V75.3z"/>
			<path id="Vector-8" class="st7" d="M165.8,52h-6.6l-0.5-5.1h7.1v-5h-12.5l0.1,1.3l1.2,13.7h11.2V52z"/>
			<path id="Vector-9" class="st7" d="M165.8,65L165.8,65l-5.6-1.5l-0.4-4h-5l0.7,7.8l10.2,2.8h0V65z"/>
			<path id="Vector-10" class="st8" d="M165.8,52v5h6.1l-0.6,6.5l-5.6,1.5v5.2l10.2-2.8l0.1-0.8l1.2-13.1l0.1-1.3H165.8z"/>
			<path id="Vector-11" class="st8" d="M165.8,41.9v5h12l0.1-1.1l0.2-2.5l0.1-1.3H165.8z"/>
		</g>
		<g id="logo_CSS">
			<path id="Vector-12" class="st9" d="M446.7,74.4l-16.3,4.4l-16.3-4.4l-3.8-40.8h40.2L446.7,74.4z"/>
			<path id="Vector-13" class="st10" d="M430.4,36.9v38.4l0,0l13.2-3.5l3-34.8H430.4z"/>
			<g id="Group-2">
				<path id="Vector-14" class="st8" d="M430.4,47.1L418.7,52l0.4,4.8l11.3-4.8l12-5.1l0.5-4.9L430.4,47.1z"/>
				
					<linearGradient id="Vector-15_1_" gradientUnits="userSpaceOnUse" x1="-214.0228" y1="23.8851" x2="-214.0228" y2="24.7774" gradientTransform="matrix(13.09 0 0 -10.851 3226.1111 315.947)">
					<stop  offset="0.387" style="stop-color:#D2D3D4;stop-opacity:0"/>
					<stop  offset="1" style="stop-color:#D2D3D4"/>
				</linearGradient>
				<path id="Vector-15" class="st11" d="M418.7,52l0.4,4.8l11.3-4.8v-4.9L418.7,52z"/>
				
					<linearGradient id="Vector-16_1_" gradientUnits="userSpaceOnUse" x1="-213.9933" y1="26.5953" x2="-213.9933" y2="27.4877" gradientTransform="matrix(14.016 0 0 -11.277 3435.9758 351.855)">
					<stop  offset="0.387" style="stop-color:#D2D3D4;stop-opacity:0"/>
					<stop  offset="1" style="stop-color:#D2D3D4"/>
				</linearGradient>
				<path id="Vector-16" class="st12" d="M442.9,41.9l-12.5,5.2v4.9l12-5.1L442.9,41.9z"/>
				
					<linearGradient id="Vector-17_1_" gradientUnits="userSpaceOnUse" x1="-213.4897" y1="58.7734" x2="-212.5974" y2="58.7734" gradientTransform="matrix(26.045 0 0 -20.473 5979.0757 1264.354)">
					<stop  offset="0" style="stop-color:#E8E7E5"/>
					<stop  offset="1" style="stop-color:#FFFFFF"/>
				</linearGradient>
				<path id="Vector-17" class="st13" d="M418.7,52l0.4,4.8l17.3,0.1l-0.4,6.4l-5.7,1.6l-5.5-1.4l-0.3-4h-5.1l0.7,7.7l10.3,3l10.2-3
					L442,52H418.7z"/>
				<g id="Group-3" class="st14">
					<path id="Vector-18" class="st15" d="M430.4,52h-11.7l0.4,4.8l11.3,0L430.4,52z"/>
					<path id="Vector-19" class="st15" d="M430.4,64.8L430.4,64.8l-5.5-1.4l-0.3-4h-5.1l0.7,7.7l10.3,3V64.8z"/>
				</g>
				
					<linearGradient id="Vector-20_1_" gradientUnits="userSpaceOnUse" x1="-213.4072" y1="-46.2118" x2="-212.5148" y2="-46.2118" gradientTransform="matrix(28.273 0 0 -5.531 6451.3306 -211.253)">
					<stop  offset="0" style="stop-color:#E8E7E5"/>
					<stop  offset="1" style="stop-color:#FFFFFF"/>
				</linearGradient>
				<path id="Vector-20" class="st16" d="M417.7,41.9h25.2l-0.5,4.9h-24.1L417.7,41.9z"/>
				<path id="Vector-21" class="st15" d="M430.4,41.9h-12.7l0.6,4.9h12.1V41.9z"/>
			</g>
		</g>
		<g id="logo_ID">
			
				<radialGradient id="Vector-22_1_" cx="-213.037" cy="72.3238" r="0.6746" gradientTransform="matrix(31.3208 0 0 -30.6129 7102.5947 2388.4858)" gradientUnits="userSpaceOnUse">
				<stop  offset="0" style="stop-color:#4B2B36;stop-opacity:0.98"/>
				<stop  offset="1" style="stop-color:#240D17"/>
			</radialGradient>
			<path id="Vector-22" class="st17" d="M408.9,153.8h42.5v41.3h-42.5V153.8z"/>
			<path id="Vector-23" class="st18" d="M408.9,153.8h42.5v41.3h-42.5V153.8z M406.9,197h46.3v-45.2h-46.3V197z M436.3,170.6
				c-0.4-0.1-0.8-0.2-1.1-0.2c-2.5,0-4.2,1.9-4.2,5.1c0,3.6,1.8,5.1,4,5.1c0.5,0,0.9-0.1,1.4-0.2V170.6z M435.2,167.5
				c0.3,0,0.7,0,1,0v-5.1c0-0.1,0.1-0.2,0.2-0.2c0,0,0,0,0,0h3.1c0.2,0,0.2,0.1,0.2,0.2v18.1c0,0.7,0,1.3,0.1,1.9
				c0,0.1,0,0.2-0.2,0.2c-1.6,0.7-3.3,1.1-5.1,1.1c-4.3,0-7.3-2.6-7.3-8C427.3,171.1,430.3,167.5,435.2,167.5z M423.9,183.2
				c0,0.2,0,0.3-0.3,0.3h-3c-0.2,0-0.3-0.1-0.3-0.3v-20.7c0-0.2,0.1-0.3,0.3-0.3h3c0.2,0,0.2,0.1,0.2,0.2L423.9,183.2L423.9,183.2z"
				/>
		</g>
		<g id="logo_PSD">
			
				<radialGradient id="Vector-24_1_" cx="-212.5412" cy="72.5791" r="0.6746" gradientTransform="matrix(31.328 0 0 -30.6109 6958.5029 2461.3264)" gradientUnits="userSpaceOnUse">
				<stop  offset="0" style="stop-color:#34364E;stop-opacity:0.98"/>
				<stop  offset="1" style="stop-color:#121024"/>
			</radialGradient>
			<path id="Vector-24" class="st19" d="M278.8,219h42.5v41.3h-42.5V219z"/>
			<path id="Vector-25" class="st20" d="M278.8,219h42.5v41.3h-42.5V219z M276.8,262.2h46.3V217h-46.3V262.2z M308.1,235.6
				c-1.5,0-2,0.8-2,1.4c0,0.7,0.3,1.2,2.4,2.2c3,1.5,4,2.9,4,4.9c0,3.1-2.4,4.8-5.5,4.8c-1.4,0.1-2.7-0.2-4-0.8
				c-0.1-0.1-0.2-0.2-0.2-0.3v-2.9c0-0.2,0.1-0.3,0.2-0.2c1.2,0.7,2.5,1.1,3.9,1.1c1.5,0,2.2-0.6,2.2-1.5c0-0.7-0.4-1.3-2.4-2.3
				c-2.7-1.3-3.9-2.6-3.9-4.9c0-2.5,1.9-4.6,5.3-4.6c1.2-0.1,2.3,0.1,3.5,0.5c0.1,0.1,0.2,0.2,0.2,0.4v2.6c0,0.2-0.1,0.3-0.3,0.2
				C310.4,235.8,309.3,235.5,308.1,235.6z M291.5,237.9c0.4,0,0.8,0,1.6,0c2.3,0,4.4-0.8,4.4-3.9c0-2.5-1.5-3.7-4.1-3.7
				c-0.8,0-1.5,0-1.9,0.1L291.5,237.9z M288,227.6c0-0.1,0.3-0.2,0.4-0.2c1.2-0.1,3.1-0.1,5-0.1c5.3,0,7.4,2.9,7.4,6.7
				c0,4.9-3.6,7-7.9,7c-0.7,0-1,0-1.5,0v7.4c0,0.2-0.1,0.2-0.2,0.2h-3c-0.2,0-0.2-0.1-0.2-0.2V227.6z"/>
		</g>
		<g id="logo_Figma">
			<path id="Vector-26" class="st21" d="M291.2,25.8c4.1,0,7.4-3.4,7.4-7.5v-7.5h-7.4c-4.1,0-7.4,3.4-7.4,7.5
				C283.7,22.4,287.1,25.7,291.2,25.8z"/>
			<path id="Vector-27" class="st22" d="M283.8,3.2c0-4.1,3.3-7.5,7.4-7.5h7.4v15.1h-7.4C287.1,10.7,283.7,7.3,283.8,3.2z"/>
			<path id="Vector-28" class="st23" d="M283.8-11.9c0-4.1,3.3-7.5,7.4-7.5h7.4v15.1h-7.4C287.1-4.4,283.7-7.7,283.8-11.9z"/>
			<path id="Vector-29" class="st24" d="M298.6-19.4h7.4c4.1,0,7.4,3.4,7.4,7.5c0,4.1-3.3,7.5-7.4,7.5h-7.4V-19.4z"/>
			<path id="Vector-30" class="st25" d="M313.4,3.2c0,4.1-3.3,7.5-7.4,7.5c-4.1,0-7.4-3.4-7.4-7.5c0-4.1,3.3-7.5,7.4-7.5
				C310.1-4.3,313.5-0.9,313.4,3.2z"/>
		</g>
		<g id="Frame-3" transform="translate(597.957 95.795)">
			
				<radialGradient id="Vector-32_1_" cx="-811.5034" cy="27.6873" r="0.6746" gradientTransform="matrix(31.3208 0 0 30.6129 25381.293 -833.3277)" gradientUnits="userSpaceOnUse">
				<stop  offset="0" style="stop-color:#442F55;stop-opacity:0.98"/>
				<stop  offset="1" style="stop-color:#170F2A"/>
			</radialGradient>
			<path id="Vector-32" class="st26" d="M-56.9-6.4h42.5v41.3h-42.5V-6.4z"/>
			<g id="Group-9">
				<path id="Vector-33" class="st27" d="M-56.9-6.4h42.5v41.3h-42.5V-6.4z M-58.8,36.9h46.3V-8.3h-46.3V36.9z M-26,13.4
					c0.5,0,1,0,1.4,0c0-0.1,0-0.2,0-0.3c0-1-0.5-3-2.5-3c-1.9,0-2.6,1.6-2.8,3.3L-26,13.4L-26,13.4z M-29.9,16.1
					c0,2.6,1.3,4.4,4.2,4.4c1.1,0,2.1-0.2,3.1-0.6c0.1-0.1,0.2,0,0.2,0.1v2.4c0,0.2-0.1,0.3-0.2,0.4c-1.2,0.5-2.5,0.8-3.9,0.7
					c-5.1,0-7-3.8-7-8c0-4.6,2.4-8.3,6.5-8.3c4.2,0,5.7,3.5,5.7,6.4c0,0.7,0,1.4-0.2,2.1c0,0.1-0.1,0.2-0.3,0.3
					c-1.1,0.1-2.1,0.2-3.2,0.1L-29.9,16.1L-29.9,16.1L-29.9,16.1z M-40.3,14.1c-0.5-2.1-1.9-6.8-2.3-9.1h0c-0.4,2.3-1.5,6.1-2.3,9.1
					H-40.3z M-45.7,17.3l-1.5,5.8c0,0.2-0.1,0.2-0.3,0.2h-2.8c-0.2,0-0.2-0.1-0.2-0.3l5.5-19.2c0.1-0.5,0.2-1.1,0.2-1.6
					c0-0.1,0.1-0.2,0.2-0.2h4.1c0.1,0,0.2,0,0.2,0.2l6.1,20.8c0,0.2,0,0.3-0.2,0.3h-3.2c-0.1,0-0.3-0.1-0.3-0.2l-1.6-5.8L-45.7,17.3
					z"/>
			</g>
		</g>
		<g>
			<g>
				<defs>
					<polyline id="SVGID_3_" points="54.9,89.1 12.1,89.1 12.1,130.8 54.9,130.8 54.9,89.1 					"/>
				</defs>
				<clipPath id="SVGID_4_">
					<use xlink:href="#SVGID_3_"  style="overflow:visible;"/>
				</clipPath>
				<g style="clip-path:url(#SVGID_4_);">
					
						<image style="overflow:visible;" width="963" height="865" xlink:href="B8C1E618.jpg"  transform="matrix(3.862747e-02 0 0 -3.862747e-02 12.0238 130.807)">
					</image>
				</g>
				<g style="clip-path:url(#SVGID_4_);">
					
						<image style="overflow:visible;" width="150" height="1080" xlink:href="B8C1E619.jpg"  transform="matrix(3.862747e-02 0 0 -3.862747e-02 49.1062 130.807)">
					</image>
				</g>
				<g transform="matrix(1 0 0 1 0 7.629395e-06)" style="clip-path:url(#SVGID_4_);">
					
						<image style="overflow:visible;" width="963" height="218" xlink:href="B8C1E61F.jpg"  transform="matrix(3.862747e-02 0 0 -3.862747e-02 12.0238 97.5102)">
					</image>
				</g>
			</g>
			<path class="st28" d="M12.1,89.1h42.8v41.6H12.1V89.1z M10.1,132.7h46.7V87.2H10.1V132.7z M38.1,106.4c0-0.2,0-0.8-0.1-1.9
				c0-0.2,0-0.2,0.2-0.3c1.2-0.5,4-1.3,7.1-1.3c0.2,0,0.2,0,0.2,0.2v2.8c0,0.2-0.1,0.2-0.2,0.2c-1.2-0.1-3,0.1-3.7,0.4v12.3
				c0,0.2-0.1,0.2-0.2,0.2h-3.1c-0.2,0-0.2-0.1-0.2-0.2L38.1,106.4L38.1,106.4z M25.7,108.2c0.4,0,0.8,0,1.6,0
				c2.3,0,4.4-0.8,4.4-3.9c0-2.5-1.5-3.7-4.1-3.7c-0.8,0-1.5,0-1.9,0.1V108.2z M22.2,97.9c0-0.1,0-0.2,0.2-0.2
				c1.2-0.1,3.1-0.1,5-0.1c5.4,0,7.7,3,7.7,6.7c0,4.9-3.6,7.1-8,7.1c-0.7,0-1,0-1.5,0v7.5c0,0.2-0.1,0.2-0.2,0.2h-3
				c-0.2,0-0.2-0.1-0.2-0.2L22.2,97.9L22.2,97.9z"/>
		</g>
	</g>
</g>
</svg>
