<?xml version="1.0" encoding="utf-8"?>
<!-- Generator: Adobe Illustrator 25.0.0, SVG Export Plug-In . SVG Version: 6.00 Build 0)  -->
<svg version="1.1" id="Layer_2" xmlns="http://www.w3.org/2000/svg" xmlns:xlink="http://www.w3.org/1999/xlink" x="0px" y="0px"
	 viewBox="0 0 489 601.8" style="enable-background:new 0 0 489 601.8;" xml:space="preserve">
<style type="text/css">
	.st0{opacity:0.1;}
	.st1{fill:#FFFFFF;stroke:#FFFFFF;stroke-miterlimit:10;}
	.st2{opacity:0.1;fill:none;stroke:#FFFFFF;stroke-miterlimit:10;}
</style>
<g>
	<g id="Group" class="st0">
		<path id="Vector" class="st1" d="M0-0.2v600"/>
		<path id="Vector-2" class="st1" d="M19.6-0.2v600"/>
		<path id="Vector-3" class="st1" d="M39.2-0.2v600"/>
		<path id="Vector-4" class="st1" d="M58.6-0.2v600"/>
		<path id="Vector-5" class="st1" d="M78.2-0.2v600"/>
		<path id="Vector-6" class="st1" d="M97.8-0.2v600"/>
		<path id="Vector-7" class="st1" d="M117.4-0.2v600"/>
		<path id="Vector-8" class="st1" d="M137-0.2v600"/>
		<path id="Vector-9" class="st1" d="M156.4-0.2v600"/>
		<path id="Vector-10" class="st1" d="M176-0.2v600"/>
		<path id="Vector-11" class="st1" d="M195.6-0.2v600"/>
		<path id="Vector-12" class="st1" d="M215.2-0.2v600"/>
		<path id="Vector-13" class="st1" d="M234.8-0.2v600"/>
		<path id="Vector-14" class="st1" d="M254.2-0.2v600"/>
		<path id="Vector-15" class="st1" d="M273.8-0.2v600"/>
		<path id="Vector-16" class="st1" d="M293.4-0.2v600"/>
		<path id="Vector-17" class="st1" d="M313-0.2v600"/>
		<path id="Vector-18" class="st1" d="M332.6-0.2v600"/>
		<path id="Vector-19" class="st1" d="M352-0.2v600"/>
		<path id="Vector-20" class="st1" d="M371.6-0.2v600"/>
		<path id="Vector-21" class="st1" d="M391.2-0.2v600"/>
		<path id="Vector-22" class="st1" d="M410.8-0.2v600"/>
		<path id="Vector-23" class="st1" d="M430.4-0.2v600"/>
		<path id="Vector-24" class="st1" d="M449.8-0.2v600"/>
		<path id="Vector-25" class="st1" d="M469.4-0.2v600"/>
		<path id="Vector-26" class="st1" d="M489-0.2v600"/>
	</g>
	<g id="Group-2" class="st0">
		<path id="Vector-27" class="st1" d="M489-0.2H0"/>
		<path id="Vector-28" class="st1" d="M489,18H0"/>
		<path id="Vector-29" class="st1" d="M489,36.1H0"/>
		<path id="Vector-30" class="st1" d="M489,54.2H0"/>
		<path id="Vector-31" class="st1" d="M489,72.4H0"/>
		<path id="Vector-32" class="st1" d="M489,90.6H0"/>
		<path id="Vector-33" class="st1" d="M489,108.9H0"/>
		<path id="Vector-34" class="st1" d="M489,127.1H0"/>
		<path id="Vector-35" class="st1" d="M489,145.2H0"/>
		<path id="Vector-36" class="st1" d="M489,163.4H0"/>
		<path id="Vector-37" class="st1" d="M489,181.6H0"/>
		<path id="Vector-38" class="st1" d="M489,199.8H0"/>
		<path id="Vector-39" class="st1" d="M489,217.9H0"/>
		<path id="Vector-40" class="st1" d="M489,236.1H0"/>
		<path id="Vector-41" class="st1" d="M489,254.2H0"/>
		<path id="Vector-42" class="st1" d="M489,272.5H0"/>
		<path id="Vector-43" class="st1" d="M489,290.6H0"/>
		<path id="Vector-44" class="st1" d="M489,308.9H0"/>
		<path id="Vector-45" class="st1" d="M489,327H0"/>
		<path id="Vector-46" class="st1" d="M489,345.2H0"/>
		<path id="Vector-47" class="st1" d="M489,363.4H0"/>
		<path id="Vector-48" class="st1" d="M489,381.5H0"/>
		<path id="Vector-49" class="st1" d="M489,399.8H0"/>
		<path id="Vector-50" class="st1" d="M489,418H0"/>
		<path id="Vector-51" class="st1" d="M489,436.1H0"/>
		<path id="Vector-52" class="st1" d="M489,454.2H0"/>
		<path id="Vector-53" class="st1" d="M489,472.5H0"/>
		<path id="Vector-54" class="st1" d="M489,490.6H0"/>
		<path id="Vector-55" class="st1" d="M489,508.9H0"/>
		<path id="Vector-56" class="st1" d="M489,527H0"/>
		<path id="Vector-57" class="st1" d="M489,545.2H0"/>
		<path id="Vector-58" class="st1" d="M489,563.4H0"/>
		<path id="Vector-59" class="st1" d="M489,581.5H0"/>
		<path id="Vector-60" class="st1" d="M489,599.8H0"/>
	</g>
	<rect x="0.3" class="st2" width="488.4" height="599.5"/>
</g>
</svg>
