<?xml version="1.0" encoding="utf-8"?>
<!-- Generator: Adobe Illustrator 25.0.0, SVG Export Plug-In . SVG Version: 6.00 Build 0)  -->
<svg version="1.1" id="Layer_1" xmlns="http://www.w3.org/2000/svg" xmlns:xlink="http://www.w3.org/1999/xlink" x="0px" y="0px"
	 viewBox="0 0 1667 2500" style="enable-background:new 0 0 1667 2500;" xml:space="preserve">
<style type="text/css">
	.st0{fill:#0ACF83;}
	.st1{fill:#A259FF;}
	.st2{fill:#F24E1E;}
	.st3{fill:#FF7262;}
	.st4{fill:#1ABCFE;}
</style>
<g>
	<path class="st0" d="M-1890.2,2481.6c230,0,416.7-186.7,416.7-416.7v-416.7h-416.7c-230,0-416.7,186.7-416.7,416.7
		S-2120.2,2481.6-1890.2,2481.6z"/>
	<path class="st1" d="M-2306.9,1231.6c0-230,186.7-416.7,416.7-416.7h416.7v833.3h-416.7
		C-2120.2,1648.3-2306.9,1461.6-2306.9,1231.6z"/>
	<path class="st2" d="M-2306.9,398.3c0-230,186.7-416.7,416.7-416.7h416.7V815h-416.7C-2120.2,815-2306.9,628.3-2306.9,398.3z"/>
	<path class="st3" d="M-1473.6-18.4h416.7c230,0,416.7,186.7,416.7,416.7S-826.9,815-1056.9,815h-416.7V-18.4z"/>
	<path class="st4" d="M-640.2,1231.6c0,230-186.7,416.7-416.7,416.7s-416.7-186.7-416.7-416.7S-1286.9,815-1056.9,815
		S-640.2,1001.6-640.2,1231.6z"/>
</g>
</svg>
