<?xml version="1.0" encoding="utf-8"?>
<!-- Generator: Adobe Illustrator 25.0.0, SVG Export Plug-In . SVG Version: 6.00 Build 0)  -->
<svg version="1.1" id="Layer_1" xmlns="http://www.w3.org/2000/svg" xmlns:xlink="http://www.w3.org/1999/xlink" x="0px" y="0px"
	 viewBox="0 0 500 500" style="enable-background:new 0 0 500 500;" xml:space="preserve">
<style type="text/css">
	.st0{fill:url(#SVGID_1_);}
	.st1{fill:#FF7F18;}
</style>
<radialGradient id="SVGID_1_" cx="-1709.9475" cy="-298.0034" r="0.6375" gradientTransform="matrix(545.6736 0 0 528.3113 933245.1875 157565.8438)" gradientUnits="userSpaceOnUse">
	<stop  offset="0" style="stop-color:#423325;stop-opacity:0.98"/>
	<stop  offset="1" style="stop-color:#1C0A00"/>
</radialGradient>
<path class="st0" d="M21.1,27.4h457.7v445.3H21.1V27.4z"/>
<path class="st1" d="M21.1,27.4h457.7v445.3H21.1V27.4z M0.3,493.4h499.4V6.6H0.3V493.4z M327.4,180.1c0-1.7,0.6-2.5,2.5-2.5h32.7
	c1.7,0,2.5,0.6,2.5,2.5v164.2c0,1.7-0.4,2.5-2.5,2.5h-32.3c-2.1,0-2.7-1-2.7-2.7v-164H327.4L327.4,180.1z M325.1,132.9
	c0-13.3,9.4-21.2,21.2-21.2c12.7,0,21.2,8.5,21.2,21.2c0,13.7-8.9,21.2-21.6,21.2C333.9,154.1,325.1,146.6,325.1,132.9z
	 M231.5,248.6c-5.8-23.1-19.6-73.4-24.8-97.8h-0.4c-4.4,24.3-15.4,65.5-24.1,97.8H231.5L231.5,248.6z M173.7,282.3l-16.4,62.4
	c-0.4,1.7-1,2.1-3.1,2.1h-30.6c-2.1,0-2.5-0.6-2.1-3.1l59.1-206.8c1-3.7,1.7-7.1,2.1-17.3c0-1.5,0.6-2.1,1.7-2.1h43.7
	c1.5,0,2.1,0.4,2.5,2.1l66.2,224.5c0.4,1.7,0,2.7-1.7,2.7h-34.5c-1.7,0-2.7-0.4-3.1-1.9l-17.1-62.6L173.7,282.3L173.7,282.3z"/>
</svg>
