<?xml version="1.0" encoding="utf-8"?>
<!-- Generator: Adobe Illustrator 25.0.0, SVG Export Plug-In . SVG Version: 6.00 Build 0)  -->
<svg version="1.1" id="Layer_1" xmlns="http://www.w3.org/2000/svg" xmlns:xlink="http://www.w3.org/1999/xlink" x="0px" y="0px"
	 viewBox="0 0 240.8 30.7" style="enable-background:new 0 0 240.8 30.7;" xml:space="preserve">
<style type="text/css">
	.st0{fill:#FFFFFF;}
	.st1{fill:#F1D216;}
</style>
<g>
	<path class="st0" d="M0,7.6h5.4v16.3H12v4.4H0V7.6z"/>
	<path class="st0" d="M13.4,7.6h12.3V12h-6.9v3.5h6.4v4.2h-6.4v4.1h7.1v4.4H13.4V7.6z"/>
	<path class="st0" d="M27.3,7.6h12.3V12h-6.9v3.5h6.4v4.2h-6.4v4.1h7.1v4.4H27.3V7.6z"/>
	<path class="st0" d="M41.2,17.9c0-3.9,0.6-6.7,1.7-8.3c1.1-1.6,3-2.4,5.7-2.4s4.6,0.8,5.7,2.4c1.1,1.6,1.7,4.4,1.7,8.3
		c0,3.9-0.5,6.7-1.6,8.3c-1.1,1.6-3,2.4-5.7,2.4c-2.7,0-4.7-0.8-5.7-2.4C41.8,24.6,41.2,21.9,41.2,17.9z M47.1,12.2
		c-0.2,0.9-0.3,2.8-0.3,5.7s0.1,4.8,0.3,5.7c0.2,0.9,0.7,1.4,1.5,1.4c0.8,0,1.3-0.5,1.5-1.4c0.2-0.9,0.3-2.8,0.3-5.7
		s-0.1-4.8-0.3-5.7c-0.2-0.9-0.7-1.4-1.5-1.4C47.8,10.9,47.3,11.3,47.1,12.2z"/>
	<path class="st1" d="M66.4,7.6h8.1c2,0,3.5,0.6,4.5,1.8c1,1.2,1.5,2.7,1.5,4.6c0,4.3-2.3,6.4-6.8,6.4h-1.9v7.9h-5.4V7.6z
		 M71.8,16.5h1c1.4,0,2.1-0.8,2.1-2.5s-0.7-2.5-2.1-2.5h-1V16.5z"/>
	<path class="st1" d="M82.2,7.6h8.4c2,0,3.4,0.5,4.3,1.5c0.9,1,1.4,2.3,1.4,4c0,2.9-1.2,4.6-3.5,4.9v0.1c1.2,0.1,2.1,0.6,2.6,1.3
		c0.5,0.8,0.8,1.9,0.8,3.3v1.8v0.8c0,1,0.1,1.7,0.3,2c0.2,0.3,0.4,0.5,0.6,0.6v0.3h-5.7c-0.3-0.7-0.5-2-0.5-3.9v-1.4
		c0-1.2-0.1-1.9-0.4-2.3C90.1,20.2,89.6,20,89,20h-1.4v8.3h-5.4V7.6z M87.6,16.3h1.1c0.8,0,1.3-0.2,1.7-0.7c0.4-0.4,0.6-1,0.6-1.8
		c0-0.9-0.2-1.5-0.5-1.9c-0.4-0.4-0.9-0.6-1.8-0.6h-1V16.3z"/>
	<path class="st1" d="M98.2,17.9c0-3.9,0.6-6.7,1.7-8.3c1.1-1.6,3-2.4,5.7-2.4s4.6,0.8,5.7,2.4c1.1,1.6,1.7,4.4,1.7,8.3
		c0,3.9-0.5,6.7-1.6,8.3c-1.1,1.6-3,2.4-5.7,2.4c-2.7,0-4.7-0.8-5.7-2.4C98.7,24.6,98.2,21.9,98.2,17.9z M104.1,12.2
		c-0.2,0.9-0.3,2.8-0.3,5.7s0.1,4.8,0.3,5.7c0.2,0.9,0.7,1.4,1.5,1.4c0.8,0,1.3-0.5,1.5-1.4c0.2-0.9,0.3-2.8,0.3-5.7
		s-0.1-4.8-0.3-5.7c-0.2-0.9-0.7-1.4-1.5-1.4C104.8,10.9,104.3,11.3,104.1,12.2z"/>
	<path class="st1" d="M114.4,7.6h7.8c0.9,0,1.6,0.1,2.3,0.3c0.7,0.2,1.2,0.5,1.7,0.8c0.5,0.3,0.8,0.8,1.2,1.3
		c0.3,0.6,0.6,1.1,0.8,1.6c0.2,0.5,0.3,1.2,0.4,2c0.1,0.8,0.2,1.5,0.2,2.1c0,0.6,0,1.4,0,2.3c0,0.9,0,1.7,0,2.3
		c0,0.6-0.1,1.3-0.2,2.1c-0.1,0.8-0.2,1.4-0.4,2c-0.2,0.5-0.4,1-0.8,1.6c-0.3,0.6-0.7,1-1.2,1.3c-0.5,0.3-1,0.6-1.7,0.8
		c-0.7,0.2-1.4,0.3-2.3,0.3h-7.8V7.6z M119.7,24.4h1.1c1,0,1.7-0.4,2-1.1c0.3-0.7,0.4-2.5,0.4-5.3c0-2.8-0.1-4.6-0.4-5.3
		c-0.3-0.7-0.9-1.1-2-1.1h-1.1V24.4z"/>
	<path class="st1" d="M135.5,7.4v14.9c0,0.9,0.1,1.6,0.4,2c0.3,0.4,0.7,0.6,1.2,0.6c0.5,0,0.9-0.2,1.2-0.6s0.4-1,0.4-2V7.4h5.4V21
		c0,2.8-0.6,4.7-1.7,5.8c-1.1,1.1-2.9,1.6-5.3,1.6c-2.4,0-4.2-0.5-5.3-1.6c-1.1-1.1-1.7-3-1.7-5.8V7.4H135.5z"/>
	<path class="st1" d="M154.4,13.9c0-1.1-0.1-1.9-0.3-2.4c-0.2-0.4-0.6-0.7-1.1-0.7c-0.8,0-1.3,0.5-1.5,1.4c-0.2,0.9-0.3,2.8-0.3,5.7
		s0.1,4.8,0.3,5.7c0.2,0.9,0.7,1.4,1.5,1.4c0.6,0,1.1-0.4,1.3-1.1c0.2-0.7,0.3-2,0.3-4h5.2v1.5c0,1.4-0.2,2.6-0.6,3.6
		c-0.4,1-0.9,1.7-1.6,2.2c-0.7,0.5-1.4,0.8-2.1,1c-0.8,0.2-1.6,0.3-2.5,0.3c-1.5,0-2.8-0.2-3.7-0.6c-0.9-0.4-1.7-1-2.2-1.9
		s-0.9-2-1.1-3.2c-0.2-1.3-0.3-2.9-0.3-5c0-4,0.5-6.8,1.6-8.4c1.1-1.6,3-2.4,5.8-2.4c4.5,0,6.7,2.2,6.7,6.5v1.3h-5.2V13.9z"/>
	<path class="st1" d="M165.1,12.1h-4V7.6h13.4v4.6h-4.1v16.1h-5.4V12.1z"/>
	<path class="st1" d="M175.9,7.6h5.4v20.7h-5.4V7.6z"/>
	<path class="st1" d="M182.7,17.9c0-3.9,0.6-6.7,1.7-8.3c1.1-1.6,3-2.4,5.7-2.4s4.6,0.8,5.7,2.4c1.1,1.6,1.7,4.4,1.7,8.3
		c0,3.9-0.5,6.7-1.6,8.3c-1.1,1.6-3,2.4-5.7,2.4c-2.7,0-4.7-0.8-5.7-2.4C183.2,24.6,182.7,21.9,182.7,17.9z M188.5,12.2
		c-0.2,0.9-0.3,2.8-0.3,5.7s0.1,4.8,0.3,5.7c0.2,0.9,0.7,1.4,1.5,1.4c0.8,0,1.3-0.5,1.5-1.4c0.2-0.9,0.3-2.8,0.3-5.7
		s-0.1-4.8-0.3-5.7c-0.2-0.9-0.7-1.4-1.5-1.4C189.3,10.9,188.8,11.3,188.5,12.2z"/>
	<path class="st1" d="M198.8,7.6h6l3.5,12.7h0.1V7.6h5v20.7h-5.9l-3.6-12.8h-0.1v12.8h-5V7.6z"/>
	<path class="st1" d="M223.5,13.6v-0.5c0-0.7-0.1-1.2-0.4-1.6c-0.3-0.4-0.6-0.6-1.1-0.6c-0.5,0-1,0.2-1.2,0.5
		c-0.3,0.4-0.4,0.8-0.4,1.3c0,0.7,0.3,1.3,0.9,1.8c0.6,0.5,1.3,0.9,2.2,1.2c0.9,0.3,1.7,0.7,2.6,1.1s1.6,1.1,2.2,2
		c0.6,0.9,0.9,2.1,0.9,3.5c0,2.2-0.6,3.8-1.8,4.8s-3.1,1.5-5.5,1.5c-2.3,0-4.1-0.4-5.2-1.3c-1.1-0.9-1.7-2.3-1.7-4.4v-0.7h5.2v0.5
		c0,1.6,0.6,2.4,1.8,2.4c0.5,0,1-0.2,1.3-0.6c0.3-0.4,0.5-0.9,0.5-1.4c0-0.5-0.2-1-0.5-1.4c-0.3-0.4-0.7-0.7-1.2-1
		c-0.5-0.3-1.1-0.5-1.7-0.7c-0.6-0.2-1.2-0.5-1.8-0.8c-0.6-0.3-1.1-0.7-1.7-1.1c-0.5-0.4-0.9-1-1.2-1.8c-0.3-0.7-0.5-1.6-0.5-2.6
		c0-4.3,2.3-6.5,6.8-6.5c2.4,0,4.1,0.5,5.1,1.5c1.1,1,1.6,2.6,1.6,4.9H223.5z"/>
	<g>
		<path class="st0" d="M232.3,2.7h-1.8V2.1h4.3v0.6H233v4.8h-0.7V2.7z"/>
		<path class="st0" d="M235.4,2.1h1l1.7,4.5l1.7-4.5h1v5.4h-0.7V3h0l-1.7,4.5h-0.6L236.1,3h0v4.5h-0.7V2.1z"/>
	</g>
</g>
</svg>
