<?xml version="1.0" encoding="utf-8"?>
<!-- Generator: Adobe Illustrator 25.0.0, SVG Export Plug-In . SVG Version: 6.00 Build 0)  -->
<svg version="1.1" id="Layer_1" xmlns="http://www.w3.org/2000/svg" xmlns:xlink="http://www.w3.org/1999/xlink" x="0px" y="0px"
	 viewBox="0 0 500 500" style="enable-background:new 0 0 500 500;" xml:space="preserve">
<style type="text/css">
	.st0{fill:#FFFFFF;}
</style>
<g>
	<g>
		<g>
			<g>
				<g>
					<path class="st0" d="M250,130.6c3.1,0,6.1,0.3,9,0.7V7.4L250,0l-9,7.4v123.9C243.9,130.9,246.9,130.6,250,130.6z"/>
					<path class="st0" d="M384.4,110.8v47.3c0,17.7-8,34.5-21.7,45.8l-23.3,19V73.8l-18-14.9v150.5c0,17.7-7.9,34.4-21.6,45.7
						L259,288.7v-45.6c-2.9,0.5-5.9,0.7-9,0.7c-3.1,0-6.1-0.3-9-0.7v45.6l-40.9-33.7c-13.6-11.2-21.6-28-21.6-45.7V58.9l-18,14.9
						v149.1l-23.3-19c-13.7-11.2-21.7-28-21.7-45.8v-47.3l-18,14.9V172c0,14.3,6.4,27.9,17.5,37l45.4,37.2v159.7
						c0,13,5.8,25.3,15.8,33.5L250,500l73.7-60.6c10-8.2,15.8-20.5,15.8-33.5V246.2l45.4-37.2c11.1-9.1,17.5-22.7,17.5-37v-46.3
						L384.4,110.8z M241,469.2l-51.7-42.6c-6.8-5.6-10.7-13.9-10.7-22.7V381l51.7,42.6c6.8,5.6,10.7,13.9,10.7,22.7V469.2z
						 M241,409.1l-51.7-42.6c-6.8-5.6-10.7-13.9-10.7-22.7v-22.9l51.7,42.6c6.8,5.6,10.7,13.9,10.7,22.7V409.1z M241,348.9
						l-51.7-42.6c-6.8-5.6-10.7-13.9-10.7-22.7V261l51.6,42.3c6.9,5.6,10.8,13.9,10.8,22.8V348.9z M321.5,403.9
						c0,8.8-3.9,17.1-10.7,22.7L259,469.2v-22.9c0-8.8,3.9-17.1,10.7-22.7l51.7-42.6V403.9z M321.5,343.8c0,8.8-3.9,17.1-10.7,22.7
						L259,409.1v-22.9c0-8.8,3.9-17.1,10.7-22.7l51.7-42.6V343.8z M321.5,283.6c0,8.8-3.9,17.1-10.7,22.7L259,348.9V326
						c0-8.9,3.9-17.2,10.8-22.8l51.6-42.3V283.6z"/>
				</g>
				<path class="st0" d="M250,229.8c-23.5,0-42.6-19.1-42.6-42.6c0-23.5,19.1-42.6,42.6-42.6c23.5,0,42.6,19.1,42.6,42.6
					C292.6,210.7,273.5,229.8,250,229.8z M250,163.2c-13.2,0-24,10.8-24,24s10.8,24,24,24c13.2,0,24-10.8,24-24
					S263.2,163.2,250,163.2z"/>
			</g>
			<circle class="st0" cx="250" cy="187.2" r="9"/>
			<path class="st0" d="M97.6,352.1l27.1,21.9v-39.8l-12.8-10c-9-7.1-14.3-17.9-14.3-29.4v-5.5l27.1,21.3v-40.1l-12.8-10
				c-9-7.1-14.3-17.9-14.3-29.4v-5.5l45.7,35.9V413l-31.8-25.7c-8.8-7.1-13.9-17.8-13.9-29.1V352.1z"/>
			<path class="st0" d="M402.3,352.1L375.3,374v-39.8l12.8-10c9-7.1,14.3-17.9,14.3-29.4v-5.5l-27.1,21.3v-40.1l12.8-10
				c9-7.1,14.3-17.9,14.3-29.4v-5.5l-45.7,35.9V413l31.8-25.7c8.8-7.1,13.9-17.8,13.9-29.1V352.1z"/>
		</g>
	</g>
</g>
</svg>
