<?xml version="1.0" encoding="utf-8"?>
<!-- Generator: Adobe Illustrator 25.0.0, SVG Export Plug-In . SVG Version: 6.00 Build 0)  -->
<svg version="1.1" id="Layer_1" xmlns="http://www.w3.org/2000/svg" xmlns:xlink="http://www.w3.org/1999/xlink" x="0px" y="0px"
	 viewBox="0 0 564.5 500" style="enable-background:new 0 0 564.5 500;" xml:space="preserve">
<style type="text/css">
	.st0{fill:#FFFFFF;}
</style>
<g>
	<g>
		<g>
			<path class="st0" d="M36.8,438.2v-25.1H12.6v25.1H0V377h12.6v24.7h24.2V377h12.7v61.1H36.8z"/>
			<path class="st0" d="M111.7,377v33.8c0,8.1-0.5,14.1-1.6,17.8c-1,3.8-3.2,6.4-6.5,8c-3.3,1.5-8.6,2.3-16,2.3
				c-7.3,0-12.7-0.8-16-2.3c-3.3-1.5-5.5-4.2-6.6-8c-1.1-3.8-1.6-9.7-1.6-17.8V377H76v37c0,4.6,0.2,7.7,0.6,9.5
				c0.4,1.8,1.4,3,2.9,3.6c1.5,0.7,4.2,1,8,1c3.8,0,6.5-0.3,8-1c1.5-0.7,2.5-1.9,2.8-3.6c0.4-1.8,0.6-4.9,0.6-9.5v-37H111.7z"/>
			<path class="st0" d="M163.3,438.2l-25-38.8H138v38.8h-12.2V377h13.1l23.9,36.6h0.4V377h12.2v61.1H163.3z"/>
			<path class="st0" d="M213.3,413.6v-10.5h22.1v33.7c-3.1,0.6-6.6,1.1-10.4,1.5c-3.8,0.4-7.1,0.6-10,0.6c-7.7,0-13.4-0.8-17.1-2.4
				c-3.7-1.6-6.3-4.6-7.7-8.9c-1.4-4.3-2.1-11-2.1-19.9c0-8.5,0.7-14.9,2.1-19.2s4-7.4,7.8-9.3c3.8-1.8,9.4-2.8,17-2.8
				c2.7,0,5.4,0.1,8,0.4c2.6,0.3,5.8,0.7,9.6,1.2l2.6,0.4v10.2l-3.3-0.4c-5.6-0.7-9.6-1-11.9-1c-6.3,0-10.6,0.3-13,1
				c-2.4,0.7-4,2.3-4.9,5c-0.9,2.7-1.3,7.5-1.3,14.3c0,6.2,0.3,10.7,1,13.5c0.7,2.8,2,4.6,4,5.6c2,1,5.2,1.5,9.7,1.5
				c3.3,0,6-0.1,7.9-0.3v-14.3H213.3z"/>
			<path class="st0" d="M284.9,438.2L265.5,377h13l14.8,46.9h0.5l14.6-46.9h12.8l-19.5,61.1H284.9z"/>
			<path class="st0" d="M377.7,377v33.8c0,8.1-0.5,14.1-1.6,17.8c-1,3.8-3.2,6.4-6.5,8c-3.3,1.5-8.6,2.3-16,2.3
				c-7.3,0-12.7-0.8-16-2.3c-3.3-1.5-5.5-4.2-6.6-8c-1.1-3.8-1.6-9.7-1.6-17.8V377h12.6v37c0,4.6,0.2,7.7,0.6,9.5
				c0.4,1.8,1.4,3,2.9,3.6c1.5,0.7,4.2,1,8,1c3.8,0,6.5-0.3,8-1c1.5-0.7,2.5-1.9,2.8-3.6c0.4-1.8,0.6-4.9,0.6-9.5v-37H377.7z"/>
			<path class="st0" d="M398.2,436.2c-3.6-1.8-5.8-4.7-6.7-8.7c-0.9-4-1.4-10.7-1.4-19.9s0.5-15.9,1.4-19.9c0.9-4,3.2-6.9,6.7-8.7
				c3.6-1.8,9.5-2.7,17.9-2.7c8.4,0,14.3,0.9,17.9,2.7c3.6,1.8,5.8,4.7,6.8,8.7c0.9,4,1.4,10.7,1.4,19.9s-0.5,15.9-1.4,19.9
				c-0.9,4-3.2,6.9-6.8,8.7c-3.6,1.8-9.6,2.7-17.9,2.7C407.7,438.9,401.7,438,398.2,436.2z M425.5,427c1.6-0.7,2.7-2.2,3.1-4.8
				c0.4-2.5,0.7-7.4,0.7-14.6c0-7.2-0.2-12.1-0.7-14.6c-0.4-2.5-1.5-4.1-3.1-4.8c-1.6-0.7-4.8-1-9.5-1c-4.7,0-7.8,0.3-9.4,1
				c-1.6,0.7-2.6,2.3-3.1,4.8c-0.5,2.5-0.7,7.4-0.7,14.6c0,7.2,0.2,12,0.7,14.6c0.5,2.5,1.5,4.1,3.1,4.8c1.6,0.7,4.7,1,9.4,1
				C420.7,427.9,423.9,427.6,425.5,427z"/>
			<path class="st0" d="M492.4,438.2l-25-38.8H467v38.8h-12.2V377h13.1l23.9,36.6h0.4V377h12.2v61.1H492.4z"/>
			<path class="st0" d="M542.4,413.6v-10.5h22.1v33.7c-3.1,0.6-6.6,1.1-10.4,1.5c-3.8,0.4-7.1,0.6-10,0.6c-7.7,0-13.4-0.8-17.1-2.4
				c-3.7-1.6-6.3-4.6-7.7-8.9c-1.4-4.3-2.1-11-2.1-19.9c0-8.5,0.7-14.9,2.1-19.2s4-7.4,7.8-9.3c3.8-1.8,9.4-2.8,17-2.8
				c2.7,0,5.4,0.1,8,0.4c2.6,0.3,5.8,0.7,9.6,1.2l2.6,0.4v10.2l-3.3-0.4c-5.6-0.7-9.6-1-11.9-1c-6.3,0-10.6,0.3-13,1
				c-2.4,0.7-4,2.3-4.9,5c-0.9,2.7-1.3,7.5-1.3,14.3c0,6.2,0.3,10.7,1,13.5c0.7,2.8,2,4.6,4,5.6c2,1,5.2,1.5,9.7,1.5
				c3.3,0,6-0.1,7.9-0.3v-14.3H542.4z"/>
		</g>
		<g>
			<path class="st0" d="M138.3,467.5H153c3,0,5.2,0.7,6.4,2.1c1.3,1.4,1.9,3.4,1.9,5.9c0,2.1-0.4,3.8-1.3,5.1
				c-0.9,1.3-2.3,2.1-4.2,2.5v0.2c2.3,0.4,3.8,1.3,4.6,2.6c0.8,1.4,1.2,3.1,1.2,5.2c0,2.6-0.6,4.6-1.9,6.2c-1.3,1.5-3.6,2.3-7.1,2.3
				h-14.4V467.5z M158.3,476.2c0-2.1-0.4-3.6-1.3-4.5c-0.9-0.9-2.5-1.4-4.9-1.4h-10.8v11.6h10.8C156.2,481.9,158.3,480,158.3,476.2z
				 M157.2,495.4c0.9-0.9,1.4-2.5,1.4-4.6c0-2.1-0.5-3.7-1.5-4.6c-1-0.9-2.6-1.4-4.9-1.4h-11v12.1h11
				C154.6,496.8,156.3,496.4,157.2,495.4z"/>
			<path class="st0" d="M190.5,499.6l-5.2-13.1H184h-10.9v13.1h-3v-32.1h14.6c2.5,0,4.4,0.4,5.6,1.2c1.2,0.8,2.1,1.9,2.4,3.2
				c0.4,1.3,0.6,3,0.6,5.1c0,2.3-0.3,4.2-1,5.8c-0.7,1.6-2,2.6-4.2,3.2l5.5,13.6H190.5z M188,483c1-0.5,1.6-1.2,1.9-2.1
				c0.3-0.9,0.4-2.2,0.4-3.8c0-1.7-0.1-3-0.4-3.9c-0.2-0.9-0.8-1.6-1.8-2.1c-0.9-0.5-2.4-0.7-4.3-0.7h-10.7v13.4h10.3
				C185.5,483.7,187,483.5,188,483z"/>
			<path class="st0" d="M202,499.6v-32.1h20.4v2.8H205V482h15.3v2.8H205v12h17.4v2.8H202z"/>
			<path class="st0" d="M256.7,499.6l-8.5-27.1H248l-8.5,27.1h-3.4l-9.1-32.1h3.1l7.7,27.7h0.3l8.4-27.7h3.2l8.5,27.7h0.2l7.6-27.7
				h3l-9.1,32.1H256.7z"/>
			<path class="st0" d="M276,499.6v-32.1h3v32.1H276z"/>
			<path class="st0" d="M310.4,499.6L292,473.2h-0.2v26.5h-2.9v-32.1h3l18.2,26.2h0.2v-26.2h2.8v32.1H310.4z"/>
			<path class="st0" d="M334.6,485.5v-2.8h10.9v16.4c-1.5,0.2-3.2,0.5-5.1,0.6c-1.9,0.2-3.5,0.3-4.9,0.3c-3.9,0-6.8-0.4-8.6-1.2
				c-1.8-0.8-3.1-2.3-3.8-4.6c-0.7-2.2-1-5.8-1-10.6c0-4.8,0.3-8.4,1-10.6c0.7-2.3,2-3.8,3.8-4.6c1.8-0.8,4.7-1.2,8.6-1.2
				c1.6,0,3.3,0.1,5.1,0.3c1.9,0.2,3.5,0.4,4.8,0.6v2.7c-3.4-0.5-6.1-0.7-8.2-0.7c-3.8,0-6.5,0.2-8,0.7c-1.5,0.4-2.6,1.6-3.2,3.4
				c-0.6,1.8-0.9,5-0.9,9.6c0,4.2,0.2,7.2,0.7,9c0.5,1.8,1.4,3,2.8,3.7c1.4,0.6,3.7,1,7,1c1,0,2.2,0,3.6-0.1
				c1.4-0.1,2.6-0.2,3.5-0.3v-11.3H334.6z"/>
			<path class="st0" d="M381.1,499.8c-1.4,0.1-2.7,0.2-3.9,0.2c-3.8,0-6.6-0.4-8.3-1.2c-1.7-0.8-2.9-2.3-3.5-4.5
				c-0.6-2.2-0.9-5.8-0.9-10.8c0-4.9,0.3-8.5,0.9-10.7c0.6-2.2,1.8-3.7,3.5-4.5c1.7-0.8,4.5-1.2,8.3-1.2c1.2,0,2.5,0.1,3.8,0.2
				c1.4,0.1,2.5,0.3,3.4,0.5v2.6c-2.2-0.3-4.4-0.5-6.5-0.5c-3.4,0-5.8,0.3-7.2,0.8c-1.4,0.5-2.2,1.7-2.7,3.5
				c-0.4,1.8-0.7,4.9-0.7,9.3c0,4.4,0.2,7.6,0.7,9.3c0.4,1.8,1.3,2.9,2.7,3.5c1.4,0.5,3.7,0.8,7.2,0.8c2.5,0,4.7-0.2,6.7-0.5v2.7
				C383.7,499.6,382.5,499.7,381.1,499.8z"/>
			<path class="st0" d="M395.4,498.8c-1.7-0.8-2.9-2.2-3.3-4.3c-0.5-2.1-0.7-5.7-0.7-10.9c0-5.2,0.2-8.8,0.7-10.9
				c0.5-2.1,1.6-3.5,3.3-4.3c1.7-0.8,4.7-1.2,8.9-1.2c4.2,0,7.2,0.4,8.9,1.2c1.7,0.8,2.9,2.2,3.3,4.3c0.5,2.1,0.7,5.7,0.7,10.9
				c0,5.2-0.2,8.8-0.7,10.9c-0.5,2.1-1.6,3.5-3.3,4.3c-1.7,0.8-4.7,1.2-8.9,1.2C400.1,500,397.1,499.6,395.4,498.8z M411.3,496.5
				c1.2-0.5,2-1.5,2.4-3.3c0.4-1.7,0.6-5,0.6-9.7c0-4.7-0.2-8-0.6-9.7c-0.4-1.7-1.2-2.8-2.4-3.3c-1.2-0.5-3.6-0.7-7-0.7
				c-3.4,0-5.7,0.2-7,0.7c-1.2,0.5-2,1.5-2.4,3.3c-0.4,1.7-0.6,5-0.6,9.7c0,4.7,0.2,8,0.6,9.7c0.4,1.7,1.2,2.8,2.4,3.3
				c1.2,0.5,3.6,0.7,7,0.7C407.7,497.2,410,497,411.3,496.5z"/>
			<path class="st0" d="M424.1,499.6v-4h3.5v4H424.1z"/>
		</g>
	</g>
	<g>
		<g>
			<g>
				<g>
					<g>
						<path class="st0" d="M276.2,87.8c2.1,0,4.1,0.2,6.1,0.5V5l-6.1-5l-6.1,5v83.3C272.1,88,274.1,87.8,276.2,87.8z"/>
						<path class="st0" d="M366.5,74.5v31.8c0,11.9-5.3,23.2-14.6,30.8l-15.6,12.8V49.6l-12.1-10v101.2c0,11.9-5.3,23.1-14.5,30.7
							l-27.5,22.6v-30.7c-2,0.3-4,0.5-6.1,0.5c-2.1,0-4.1-0.2-6.1-0.5v30.7l-27.5-22.6c-9.2-7.6-14.5-18.8-14.5-30.7V39.6l-12.1,10
							v100.2L200.4,137c-9.2-7.5-14.6-18.8-14.6-30.8V74.5l-12.1,10v31.1c0,9.6,4.3,18.8,11.8,24.9l30.5,25v107.3
							c0,8.7,3.9,17,10.6,22.5l49.5,40.8l49.5-40.8c6.7-5.5,10.6-13.8,10.6-22.5V165.5l30.5-25c7.5-6.1,11.8-15.2,11.8-24.9V84.5
							L366.5,74.5z M270.1,315.4l-34.8-28.6c-4.6-3.8-7.2-9.3-7.2-15.3v-15.4l34.8,28.6c4.6,3.8,7.2,9.3,7.2,15.3V315.4z
							 M270.1,274.9l-34.8-28.6c-4.6-3.8-7.2-9.3-7.2-15.3v-15.4l34.8,28.6c4.6,3.8,7.2,9.3,7.2,15.3V274.9z M270.1,234.5
							l-34.8-28.6c-4.6-3.8-7.2-9.3-7.2-15.3v-15.2l34.7,28.4c4.6,3.8,7.3,9.4,7.3,15.3V234.5z M324.2,271.5
							c0,5.9-2.6,11.5-7.2,15.3l-34.8,28.6V300c0-5.9,2.6-11.5,7.2-15.3l34.8-28.6V271.5z M324.2,231.1c0,5.9-2.6,11.5-7.2,15.3
							l-34.8,28.6v-15.4c0-5.9,2.6-11.5,7.2-15.3l34.8-28.6V231.1z M324.2,190.6c0,5.9-2.6,11.5-7.2,15.3l-34.8,28.6v-15.4
							c0-6,2.6-11.5,7.3-15.3l34.7-28.4V190.6z"/>
					</g>
					<path class="st0" d="M276.2,154.5c-15.8,0-28.7-12.9-28.7-28.7c0-15.8,12.9-28.7,28.7-28.7c15.8,0,28.7,12.9,28.7,28.7
						C304.8,141.6,292,154.5,276.2,154.5z M276.2,109.7c-8.9,0-16.1,7.2-16.1,16.1s7.2,16.1,16.1,16.1c8.9,0,16.1-7.2,16.1-16.1
						S285,109.7,276.2,109.7z"/>
				</g>
				<circle class="st0" cx="276.2" cy="125.8" r="6.1"/>
				<path class="st0" d="M173.7,236.7l18.2,14.7v-26.7l-8.6-6.7c-6.1-4.8-9.6-12.1-9.6-19.8v-3.7l18.2,14.3v-27l-8.6-6.7
					c-6.1-4.8-9.6-12.1-9.6-19.8v-3.7l30.7,24.1v101.9L183,260.3c-5.9-4.8-9.3-12-9.3-19.5V236.7z"/>
				<path class="st0" d="M378.5,236.7l-18.2,14.7v-26.7l8.6-6.7c6.1-4.8,9.6-12.1,9.6-19.8v-3.7l-18.2,14.3v-27l8.6-6.7
					c6.1-4.8,9.6-12.1,9.6-19.8v-3.7l-30.7,24.1v101.9l21.4-17.3c5.9-4.8,9.3-12,9.3-19.5V236.7z"/>
			</g>
		</g>
	</g>
</g>
</svg>
