<?xml version="1.0" encoding="utf-8"?>
<!-- Generator: Adobe Illustrator 25.0.0, SVG Export Plug-In . SVG Version: 6.00 Build 0)  -->
<svg version="1.1" id="Layer_1" xmlns="http://www.w3.org/2000/svg" xmlns:xlink="http://www.w3.org/1999/xlink" x="0px" y="0px"
	 viewBox="0 0 500 500" style="enable-background:new 0 0 500 500;" xml:space="preserve">
<style type="text/css">
	.st0{fill:#FFFFFF;}
</style>
<g>
	<g>
		<g>
			<g>
				<g>
					<path class="st0" d="M250,185.5c1.7,0,3.3,0.1,4.9,0.4v-67l-4.9-4l-4.9,4v67C246.7,185.6,248.3,185.5,250,185.5z"/>
				</g>
				<g>
					<path class="st0" d="M322.7,174.8v25.6c0,9.6-4.3,18.7-11.7,24.7l-12.6,10.3v-80.6l-9.7-8v81.4c0,9.6-4.3,18.6-11.7,24.7
						l-22.1,18.2v-24.7c-1.6,0.3-3.2,0.4-4.9,0.4c-1.7,0-3.3-0.1-4.9-0.4v24.7L223,252.7c-7.4-6.1-11.7-15.1-11.7-24.7v-81.4l-9.7,8
						v80.6L189,225.1c-7.4-6.1-11.7-15.2-11.7-24.7v-25.6l-9.7,8v25c0,7.7,3.5,15.1,9.5,20l24.6,20.1v86.3c0,7,3.1,13.7,8.6,18.1
						l39.8,32.8l39.8-32.8c5.4-4.5,8.6-11.1,8.6-18.1v-86.3l24.6-20.1c6-4.9,9.5-12.2,9.5-20v-25L322.7,174.8z M245.1,368.5l-28-23
						c-3.7-3-5.8-7.5-5.8-12.3v-12.4l28,23c3.7,3,5.8,7.5,5.8,12.3V368.5z M245.1,336l-28-23c-3.7-3-5.8-7.5-5.8-12.3v-12.4l28,23
						c3.7,3,5.8,7.5,5.8,12.3V336z M245.1,303.5l-28-23c-3.7-3-5.8-7.5-5.8-12.3v-12.2l27.9,22.9c3.7,3,5.8,7.5,5.8,12.3V303.5z
						 M288.6,333.2c0,4.8-2.1,9.3-5.8,12.3l-28,23v-12.4c0-4.8,2.1-9.3,5.8-12.3l28-23V333.2z M288.6,300.7c0,4.8-2.1,9.3-5.8,12.3
						l-28,23v-12.4c0-4.8,2.1-9.3,5.8-12.3l28-23V300.7z M288.6,268.2c0,4.8-2.1,9.3-5.8,12.3l-28,23v-12.4c0-4.8,2.1-9.3,5.8-12.3
						l27.9-22.9V268.2z"/>
				</g>
			</g>
			<g>
				<path class="st0" d="M250,239.1c-12.7,0-23-10.3-23-23c0-12.7,10.3-23,23-23c12.7,0,23,10.3,23,23
					C273,228.8,262.7,239.1,250,239.1z M250,203.1c-7.2,0-13,5.8-13,13c0,7.2,5.8,13,13,13c7.2,0,13-5.8,13-13
					C263,208.9,257.2,203.1,250,203.1z"/>
			</g>
		</g>
		<g>
			<circle class="st0" cx="250" cy="216.1" r="4.9"/>
		</g>
		<g>
			<path class="st0" d="M167.6,305.2l14.6,11.8v-21.5l-6.9-5.4c-4.9-3.8-7.7-9.7-7.7-15.9v-3l14.6,11.5V261l-6.9-5.4
				c-4.9-3.8-7.7-9.7-7.7-15.9v-3l24.7,19.4v82l-17.2-13.9c-4.7-3.8-7.5-9.6-7.5-15.7V305.2z"/>
		</g>
		<g>
			<path class="st0" d="M332.4,305.2L317.7,317v-21.5l6.9-5.4c4.9-3.8,7.7-9.7,7.7-15.9v-3l-14.6,11.5V261l6.9-5.4
				c4.9-3.8,7.7-9.7,7.7-15.9v-3l-24.7,19.4v82l17.2-13.9c4.7-3.8,7.5-9.6,7.5-15.7V305.2z"/>
		</g>
	</g>
	<g>
		<g>
			<path class="st0" d="M102.7,146.4l-15.6-10.2l-9.8,15l15.6,10.2l-5.1,7.8l-38-24.8l5.1-7.8l15.4,10l9.8-15l-15.3-10l5.2-7.9
				l38,24.8L102.7,146.4z"/>
			<path class="st0" d="M108.2,75l17.1,18.3c4.1,4.4,6.8,7.9,8.2,10.5c1.3,2.6,1.5,5.1,0.5,7.6c-1,2.5-3.5,5.6-7.5,9.4
				c-4,3.7-7.3,6-9.9,6.8c-2.6,0.8-5.1,0.5-7.6-1c-2.5-1.5-5.8-4.5-9.9-8.9L82,99.4l6.9-6.4l18.7,20.1c2.3,2.5,4,4.1,5.2,4.8
				c1.1,0.8,2.3,0.9,3.4,0.5c1.2-0.4,2.8-1.6,4.8-3.5c2.1-1.9,3.4-3.5,3.9-4.6c0.5-1.1,0.4-2.3-0.3-3.4c-0.7-1.2-2.2-3-4.5-5.5
				l-18.7-20.1L108.2,75z"/>
			<path class="st0" d="M169.8,89.9l-30.2-16.1l-0.2,0.1L153.4,99l-7.9,4.4l-22.1-39.6l8.5-4.7l28.7,15.1l0.3-0.2l-13.2-23.7
				l7.9-4.4l22.1,39.6L169.8,89.9z"/>
			<path class="st0" d="M197.3,60.3l-2.1-7.5l15.8-4.4l6.7,24.1c-2.1,1-4.5,2.1-7.1,3.1c-2.6,1-5,1.8-7.1,2.4
				c-5.5,1.5-9.8,2.1-12.7,1.6c-3-0.4-5.4-2.1-7.3-4.9c-1.9-2.8-3.7-7.4-5.5-13.8c-1.7-6.1-2.4-10.8-2.3-14.2
				c0.2-3.4,1.4-6.1,3.8-8.2c2.3-2.1,6.2-3.8,11.6-5.3c1.9-0.5,3.9-1,5.8-1.3c1.9-0.3,4.3-0.6,7.1-1l1.9-0.3l2,7.3l-2.4,0.4
				c-4.2,0.6-7.1,1.2-8.7,1.7c-4.5,1.2-7.5,2.3-9.1,3.3c-1.6,0.9-2.4,2.5-2.5,4.6c-0.1,2.1,0.6,5.6,1.9,10.5
				c1.2,4.4,2.4,7.6,3.4,9.4c1,1.8,2.3,2.9,3.9,3.3c1.6,0.3,4,0,7.3-0.8c2.4-0.7,4.2-1.2,5.6-1.8l-2.8-10.2L197.3,60.3z"/>
			<path class="st0" d="M251.2,71.5l-13-45.8l9.6,0.3l9.9,35.2l0.4,0l11.9-34.5l9.5,0.3l-15.9,44.9L251.2,71.5z"/>
			<path class="st0" d="M328.6,39.4l-6.8,24.1c-1.6,5.8-3.2,9.9-4.7,12.4c-1.5,2.5-3.6,3.9-6.3,4.4c-2.7,0.4-6.6-0.1-11.9-1.5
				c-5.3-1.5-8.9-3.1-11-4.9c-2.1-1.8-3.1-4.1-3.1-7c0-2.9,0.8-7.3,2.4-13.1l6.8-24.1l9,2.5l-7.4,26.4c-0.9,3.3-1.4,5.6-1.5,6.9
				c-0.1,1.4,0.4,2.4,1.4,3.2c1,0.8,2.8,1.5,5.5,2.3c2.8,0.8,4.7,1.1,5.9,0.9c1.2-0.2,2.1-0.8,2.8-2c0.6-1.2,1.4-3.4,2.3-6.7
				l7.4-26.4L328.6,39.4z"/>
			<path class="st0" d="M328.5,87.2c-1.6-2.4-2-5.1-1.2-8.1c0.9-2.9,3-7.4,6.4-13.4c3.4-6,6.1-10.1,8.2-12.4
				c2.1-2.3,4.6-3.3,7.5-3.2c2.9,0.2,7.1,1.8,12.5,4.8c5.4,3.1,8.9,5.8,10.6,8.3c1.7,2.5,2.1,5.2,1.2,8.1c-0.9,2.9-3,7.4-6.4,13.4
				c-3.4,6-6.1,10.1-8.2,12.4c-2.1,2.3-4.6,3.3-7.5,3.2c-3-0.2-7.1-1.8-12.5-4.8C333.7,92.4,330.2,89.6,328.5,87.2z M349.5,91.2
				c1.3,0.2,2.5-0.5,3.7-1.9c1.2-1.5,3.1-4.5,5.8-9.2c2.6-4.7,4.3-7.9,4.9-9.7c0.6-1.8,0.5-3.2-0.3-4.2c-0.8-1-2.7-2.4-5.8-4.1
				c-3-1.7-5.2-2.6-6.4-2.8c-1.3-0.2-2.5,0.5-3.8,2c-1.2,1.5-3.2,4.5-5.8,9.2c-2.6,4.6-4.2,7.9-4.9,9.7c-0.6,1.8-0.5,3.2,0.3,4.2
				c0.8,1,2.7,2.4,5.7,4.1C346.1,90.1,348.2,91,349.5,91.2z"/>
			<path class="st0" d="M381.9,127.8l6.4-33.7l-0.2-0.2l-19.8,20.9l-6.6-6.2l31.2-32.9l7,6.7l-5.8,31.9l0.2,0.2L413,94.9l6.6,6.2
				L388.4,134L381.9,127.8z"/>
			<path class="st0" d="M418.3,145.2l6.5-4.2l8.9,13.8l-21,13.6c-1.6-1.7-3.3-3.7-5.1-5.9c-1.8-2.2-3.2-4.2-4.4-6
				c-3.1-4.8-4.9-8.7-5.4-11.6c-0.5-3,0.3-5.8,2.5-8.4c2.1-2.6,6-5.8,11.5-9.4c5.3-3.4,9.6-5.6,12.8-6.4c3.3-0.9,6.3-0.5,8.9,1.1
				c2.7,1.6,5.5,4.8,8.6,9.5c1.1,1.7,2.1,3.4,3,5.2c0.9,1.8,1.9,3.9,3.1,6.5l0.8,1.7l-6.4,4.1l-1.1-2.2c-1.9-3.8-3.3-6.4-4.2-7.8
				c-2.5-3.9-4.5-6.5-5.9-7.7c-1.4-1.2-3.1-1.6-5.1-1c-2,0.6-5.2,2.2-9.5,5c-3.9,2.5-6.5,4.5-8,6c-1.5,1.5-2.1,3.1-1.9,4.7
				c0.2,1.6,1.2,3.9,3,6.7c1.3,2.1,2.5,3.7,3.4,4.8l8.9-5.8L418.3,145.2z"/>
		</g>
		<g>
			<path class="st0" d="M250,500c-33.7,0-66.5-6.6-97.3-19.6c-29.8-12.6-56.5-30.6-79.5-53.6c-23-23-41-49.7-53.6-79.5
				C6.6,316.5,0,283.7,0,250s6.6-66.5,19.6-97.3c12.6-29.8,30.6-56.5,53.6-79.5c23-23,49.7-41,79.5-53.6C183.5,6.6,216.3,0,250,0
				s66.5,6.6,97.3,19.6c29.8,12.6,56.5,30.6,79.5,53.6c23,23,41,49.7,53.6,79.5c13,30.8,19.6,63.6,19.6,97.3s-6.6,66.5-19.6,97.3
				c-12.6,29.8-30.6,56.5-53.6,79.5c-23,23-49.7,41-79.5,53.6C316.5,493.4,283.7,500,250,500z M250,5.8C115.4,5.8,5.8,115.4,5.8,250
				c0,134.6,109.5,244.2,244.2,244.2c134.6,0,244.2-109.5,244.2-244.2C494.2,115.4,384.6,5.8,250,5.8z"/>
		</g>
		<g>
			<path class="st0" d="M69.9,240.9l1,22.1c0.2,4.4-0.6,7.7-2.4,9.8c-1.8,2.1-4.6,3.3-8.4,3.5c-3.2,0.1-5.6-0.4-7.3-1.5
				c-1.7-1.2-3-3.1-3.7-5.8l-0.3,0c-0.5,3-1.5,5.2-3.2,6.5c-1.6,1.3-4.1,2.1-7.4,2.2c-3.9,0.2-6.9-0.7-9.1-2.6
				c-2.2-1.9-3.3-5.3-3.5-10.1l-1-22.1L69.9,240.9z M34.1,265.8c0.3,1,0.9,1.6,1.7,1.9c0.8,0.3,1.9,0.5,3.3,0.4
				c1.4-0.1,2.5-0.3,3.3-0.7c0.8-0.4,1.3-1.1,1.5-2.1c0.3-1,0.4-2.4,0.3-4.2l-0.4-9.8L33,251.8l0.4,9.8
				C33.5,263.4,33.7,264.8,34.1,265.8z M53.6,265.7c0.8,0.9,2.1,1.3,4,1.2c1.4-0.1,2.5-0.3,3.2-0.7c0.7-0.4,1.2-1,1.4-2
				c0.2-0.9,0.3-2.3,0.2-4.2l-0.4-9.4L51.9,251l0.4,9.4C52.4,263,52.8,264.7,53.6,265.7z"/>
			<path class="st0" d="M35.8,319.2l14-10.8l-2.7-9.8L31.3,303l-2.5-9l43.7-12.2l5.7,20.6c1.1,3.8,1.3,6.8,0.7,9.1
				c-0.6,2.3-1.8,4-3.5,5.2c-1.8,1.2-4.2,2.2-7.3,3.1c-6.9,1.9-11.7,1-14.5-2.7l-15.1,11.7L35.8,319.2z M59.1,309.5
				c0.7,1,1.4,1.6,2.3,1.7c0.9,0.1,2.3-0.1,4-0.6c1.8-0.5,3.1-1,3.8-1.6c0.7-0.5,1.1-1.4,1.1-2.6c0-1.2-0.3-3-1-5.5l-2.2-8
				l-12.3,3.4l2.2,7.9C57.8,306.8,58.5,308.5,59.1,309.5z"/>
			<path class="st0" d="M44.4,342.4l40.1-21.3l14.6,27.6l-7.2,3.8l-10.2-19.3l-9.1,4.8l8.8,16.6l-7.2,3.8l-8.8-16.6l-9.5,5
				l10.2,19.3l-7.2,3.8L44.4,342.4z"/>
			<path class="st0" d="M92.2,410.5l16.5-26.8l-0.2-0.2l-27.8,14.8l-8-8.6l25.4-39.2l6.5,6.9l-19.2,29.1l0.2,0.2l30.7-16.8l6.6,7.1
				l-18.6,29.8l0.2,0.2l29.9-17.7l6.4,6.8l-40.7,22.9L92.2,410.5z"/>
			<path class="st0" d="M119.2,433.1l25.6-37.5l7.7,5.3l-25.6,37.5L119.2,433.1z"/>
			<path class="st0" d="M165.5,458.6l-5-33.9l-0.2-0.1l-11.9,26.3l-8.2-3.7l18.7-41.3l8.8,4l4.9,32.1l0.3,0.1l11.2-24.8l8.2,3.7
				l-18.7,41.3L165.5,458.6z"/>
			<path class="st0" d="M210.9,453l1.5-7.6l16.1,3.2l-4.8,24.5c-2.4,0-5-0.2-7.8-0.4c-2.8-0.3-5.3-0.6-7.4-1
				c-5.6-1.1-9.6-2.5-12.1-4.2c-2.5-1.7-3.9-4.3-4.3-7.6c-0.4-3.4,0-8.3,1.3-14.8c1.2-6.2,2.7-10.7,4.3-13.7c1.7-3,4-4.8,7-5.6
				c3-0.8,7.3-0.6,12.8,0.4c2,0.4,3.9,0.9,5.8,1.5c1.9,0.6,4.1,1.4,6.8,2.3l1.8,0.6l-1.5,7.4l-2.3-0.7c-4-1.3-6.8-2.1-8.5-2.4
				c-4.6-0.9-7.8-1.3-9.6-1.2c-1.8,0.1-3.3,1.1-4.3,3c-1,1.8-2,5.3-3,10.3c-0.9,4.5-1.3,7.8-1.2,9.9c0.1,2.1,0.8,3.7,2.1,4.7
				c1.3,1,3.6,1.9,6.9,2.5c2.4,0.5,4.3,0.8,5.8,0.9l2.1-10.4L210.9,453z"/>
			<path class="st0" d="M282.1,473.1c-2.1,0.4-4.1,0.7-6,0.9c-5.6,0.5-9.7,0.3-12.5-0.8c-2.8-1.1-4.8-3.2-5.9-6.2
				c-1.2-3.1-2.1-7.8-2.7-14.2c-0.6-6.3-0.6-11.1-0.1-14.3c0.6-3.3,2.1-5.7,4.6-7.3c2.5-1.6,6.5-2.7,12.1-3.3c1.9-0.2,3.9-0.3,6-0.3
				c2.1,0,3.9,0.1,5.3,0.3l0.7,7.5c-3.9-0.1-6.8,0-8.9,0.2c-4,0.4-6.7,1-8.2,1.7c-1.5,0.7-2.3,2.1-2.6,4.1c-0.2,2-0.1,5.4,0.4,10.4
				c0.5,5,1,8.4,1.7,10.3c0.6,1.9,1.7,3,3.3,3.5c1.6,0.4,4.4,0.5,8.4,0.1c3.3-0.3,6.3-0.8,9.1-1.6l0.8,7.7
				C286.1,472.3,284.3,472.7,282.1,473.1z"/>
			<path class="st0" d="M306.1,466.7c-2.9-0.4-5.2-2-6.7-4.6c-1.6-2.6-3.4-7.2-5.5-13.7c-2.1-6.5-3.3-11.3-3.6-14.4
				c-0.3-3.1,0.6-5.6,2.7-7.7c2.1-2.1,6.1-4.1,12-6c5.9-1.9,10.3-2.7,13.3-2.2c2.9,0.4,5.2,2,6.8,4.6c1.6,2.6,3.4,7.2,5.5,13.7
				c2.1,6.5,3.3,11.3,3.6,14.4c0.3,3.1-0.7,5.6-2.8,7.7c-2.1,2.1-6.1,4.1-12,6C313.4,466.4,309,467.2,306.1,466.7z M323.3,453.9
				c1-0.8,1.4-2.2,1.1-4.1c-0.3-1.9-1.2-5.4-2.9-10.5c-1.7-5.1-2.9-8.5-3.8-10.2c-0.9-1.7-2-2.6-3.3-2.6c-1.3-0.1-3.6,0.4-6.9,1.5
				c-3.3,1.1-5.4,2-6.4,2.8c-1,0.8-1.3,2.2-1.1,4.1c0.2,1.9,1.2,5.4,2.8,10.5c1.6,5.1,2.9,8.4,3.8,10.1c0.9,1.7,2,2.6,3.3,2.7
				c1.3,0.1,3.6-0.4,6.9-1.5C320.1,455.7,322.3,454.8,323.3,453.9z"/>
			<path class="st0" d="M386.3,429.5l-17-25.9l-0.3,0.2l7.2,32.4l-5.4,3.6L344,420.2l-0.3,0.2l17,25.9l-7.3,4.8l-24.9-37.9l10.8-7.1
				l25.2,18.2l0.3-0.2l-6.7-30.4l10.7-7.1l24.9,37.9L386.3,429.5z"/>
			<path class="st0" d="M373.3,381.5l13.9-15.6c2.5-2.8,4.9-4.6,7.1-5.3c2.2-0.7,4.4-0.6,6.5,0.3c2.1,0.9,4.4,2.5,6.9,4.8
				c2.4,2.2,4.2,4.2,5.4,6.2c1.2,1.9,1.5,4.1,1.1,6.5c-0.4,2.4-1.9,5-4.5,7.9l-7.6,8.5l11.3,10.1l-6.2,7L373.3,381.5z M401.1,383.7
				c1.8-2,2.9-3.5,3.4-4.6c0.5-1.1,0.5-2.1,0-3c-0.5-0.9-1.5-2-3.1-3.4c-1.6-1.4-2.8-2.3-3.7-2.7c-0.9-0.4-1.9-0.3-2.9,0.3
				c-1,0.6-2.4,1.9-4.2,3.9l-5.1,5.7l10.5,9.4L401.1,383.7z"/>
			<path class="st0" d="M451.6,350.5l-10.1-1.9l-8.7,15.4l6.9,7.6l-4.6,8.2l-31.9-35.7l6.2-11l47.1,9L451.6,350.5z M413.9,343
				l-0.2,0.3l13.2,14.5l6.2-11L413.9,343z"/>
			<path class="st0" d="M468.8,302.9l-32.8,9.9l-0.1,0.3l27.7,7.9l-2.5,8.7l-43.6-12.4l2.7-9.3l31-9.6l0.1-0.3l-26.1-7.4l2.5-8.7
				l43.6,12.4L468.8,302.9z"/>
			<path class="st0" d="M474.4,267l-15.9-0.9l-30.2,13.9l0.5-9.8l20.5-9.2l0-0.5l-19.3-11.4l0.5-9.6l28.5,17.2l15.9,0.9L474.4,267z"
				/>
		</g>
		<g>
			<path class="st0" d="M250,409.4c-42.6,0-82.6-16.6-112.7-46.7c-30.1-30.1-46.7-70.1-46.7-112.7s16.6-82.6,46.7-112.7
				c30.1-30.1,70.1-46.7,112.7-46.7s82.6,16.6,112.7,46.7s46.7,70.1,46.7,112.7s-16.6,82.6-46.7,112.7
				C332.6,392.8,292.6,409.4,250,409.4z M250,96c-84.9,0-154,69.1-154,154c0,84.9,69.1,154,154,154c84.9,0,154-69.1,154-154
				C404,165.1,334.9,96,250,96z"/>
		</g>
		<g>
			
				<rect x="52.5" y="151.6" transform="matrix(0.3248 -0.9458 0.9458 0.3248 -148.9479 185.1423)" class="st0" width="5.4" height="90.6"/>
		</g>
		<g>
			
				<rect x="399.4" y="194.2" transform="matrix(0.9458 -0.3248 0.3248 0.9458 -39.8393 155.1462)" class="st0" width="90.6" height="5.4"/>
		</g>
	</g>
</g>
</svg>
