<?xml version="1.0" encoding="utf-8"?>
<!-- Generator: Adobe Illustrator 25.0.0, SVG Export Plug-In . SVG Version: 6.00 Build 0)  -->
<svg version="1.1" id="Layer_1" xmlns="http://www.w3.org/2000/svg" xmlns:xlink="http://www.w3.org/1999/xlink" x="0px" y="0px"
	 viewBox="0 0 409.3 317" style="enable-background:new 0 0 409.3 317;" xml:space="preserve">
<style type="text/css">
	.st0{fill:#FFFFFF;}
	.st1{fill-rule:evenodd;clip-rule:evenodd;fill:#FFFFFF;}
</style>
<path class="st0" d="M146.4,102.7L146.4,102.7L146.4,102.7c0,0-0.1,11.6,9.5,16.8c1.2,0.5,2.3,1,3.3,1.6c0.4,0.2,0.7,0.4,0.9,0.6
	c7.1,4.6,11.8,12.5,11.8,21.5v9.9h-19.7c-28.6,0-51.8-23.3-51.8-51.8l0-9.7l0,0c-0.4-8-6.8-14.5-14.9-14.7v15.4v9.1
	c0,36.8,30,66.8,66.8,66.8h34.6v-24.8C186.9,120.9,168.8,102.7,146.4,102.7z"/>
<path class="st0" d="M310.7,92.2L310.7,92.2l0,9.2c0,28.6-23.3,51.8-51.8,51.8h-19.7v-9.9c0-8.7,4.4-16.5,11.1-21.1
	c0.2-0.4,1.2-1,3.4-2c10.9-4.8,10.7-17.3,10.7-17.4c-22.2,0.1-40.2,18.3-40.2,40.5v24.8h34.6c36.8,0,66.8-30,66.8-66.8v-9.2V76.9
	v-0.1C317.4,77,310.7,83.8,310.7,92.2z"/>
<path class="st1" d="M231.3,44.8L231.3,44.8L231.3,44.8C230.4,42.6,205.6,0,205.6,0s-24.8,42.7-25.7,44.9l0,0l0,0
	c-1.3,3.2-2.1,6.8-2.1,10.5c0,15.3,12.4,27.8,27.8,27.8c15.3,0,27.8-12.4,27.8-27.8C233.4,51.7,232.6,48.1,231.3,44.8z M205.6,68.3
	c-7.6,0-13.7-6.2-13.7-13.7c0-1.8,0.4-3.6,1-5.2l0,0l0,0c0.5-1.1,12.7-22.2,12.7-22.2s12.3,21.1,12.7,22.2l0,0l0,0
	c0.7,1.6,1,3.4,1,5.2C219.3,62.1,213.2,68.3,205.6,68.3z"/>
<path class="st0" d="M299.5,76.9h-34.6c-25.8,0-48.1,14.7-59.3,36.1c-11.1-21.5-33.5-36.2-59.3-36.2h-34.6v24.8
	c0,22.3,18.2,40.5,40.5,40.5v-0.5c-0.1-2.3-1-11.8-9.5-16.3c-1.1-0.5-2.2-1-3.3-1.6c-0.4-0.2-0.7-0.4-0.9-0.6
	c-7.1-4.5-11.8-12.5-11.8-21.5v-9.9h19.7c28.6,0,51.8,23.3,51.8,51.8v17c0,4.1,3.4,7.5,7.5,7.5c4.1,0,7.5-3.4,7.5-7.5
	c0-0.1,0-0.2,0-0.2v-16.7c0-28.6,23.3-51.8,51.8-51.8h19.7v9.9c0,8.7-4.4,16.4-11,21c-0.1,0.4-1.1,1-3.5,2.1
	c-10.9,4.8-10.7,17.4-10.7,17.4l-0.1,0c22.2-0.2,40.2-18.3,40.2-40.5L299.5,76.9z"/>
<g>
	<path class="st0" d="M40.5,261.9l-21.6-74.9h15.9l12.9,52.9l10.9-52.9h16.6l10.7,52.9l11.5-47.3c0.9-3.8,3.4-5.7,7.6-5.7h9.6
		l-21.3,74.9H78.4l-11.5-57.5l-11.8,57.5H40.5z"/>
	<path class="st0" d="M159.6,244.1h10.2c-1.5,5.7-4.3,10-8.5,13c-4.2,3.1-9.5,4.7-15.8,4.7c-7.7,0-13.7-2.5-18.1-7.5
		c-4.3-4.9-6.5-11.8-6.5-20.9c0-8.7,2.1-15.4,6.3-20.3c4.3-5,10.4-7.5,18.1-7.5c8.1,0,14.4,2.4,18.9,7.3c4.3,5,6.5,12,6.5,20.9
		c0,0.5,0,1,0,1.4s0,0.7,0,0.8c0,0.7-0.1,1.2-0.2,1.4h-35.1c0.1,4.2,1.1,7.3,3,9.3c1.8,2.2,4.4,3.2,7.9,3.2c2.3,0,4.3-0.5,5.9-1.4
		c0.4-0.1,0.8-0.4,1.1-0.7c0.3-0.3,0.7-0.7,1.1-1.1c0.1-0.4,0.6-0.9,1.5-1.6C156.7,244.4,157.9,244.1,159.6,244.1z M135.2,228.2
		h20.7c-0.3-3.7-1.2-6.4-2.8-8.1c-1.8-1.9-4.3-2.8-7.5-2.8c-3,0-5.4,0.9-7.3,2.8C136.3,222,135.3,224.7,135.2,228.2z"/>
	<path class="st0" d="M312.1,244.1h10.2c-1.5,5.7-4.3,10-8.5,13c-4.2,3.1-9.5,4.7-15.8,4.7c-7.7,0-13.7-2.5-18.1-7.5
		c-4.3-4.9-6.5-11.8-6.5-20.9c0-8.7,2.1-15.4,6.3-20.3c4.3-5,10.4-7.5,18.1-7.5c8.1,0,14.4,2.4,18.9,7.3c4.3,5,6.5,12,6.5,20.9
		c0,0.5,0,1,0,1.4s0,0.7,0,0.8c0,0.7-0.1,1.2-0.2,1.4h-35.1c0.1,4.2,1.1,7.3,3,9.3c1.8,2.2,4.4,3.2,7.9,3.2c2.3,0,4.3-0.5,5.9-1.4
		c0.4-0.1,0.8-0.4,1.1-0.7c0.3-0.3,0.7-0.7,1.1-1.1c0.1-0.4,0.6-0.9,1.5-1.6C309.2,244.4,310.5,244.1,312.1,244.1z M287.7,228.2
		h20.7c-0.3-3.7-1.2-6.4-2.8-8.1c-1.8-1.9-4.3-2.8-7.5-2.8c-3,0-5.4,0.9-7.3,2.8C288.9,222,287.9,224.7,287.7,228.2z"/>
	<path class="st0" d="M245.8,261.9h-14.8l-8.7-40.3l-8.7,40.3h-14.8l-15.5-56.4h14.4l8.9,39l8.1-39h15l7.6,39l7.8-33.9
		c0.8-3.4,3.1-5.1,6.8-5.1h9.3L245.8,261.9z"/>
	<path class="st0" d="M341.2,186.9h7.8c2,0,3.8,0.7,5.2,2.1c1.4,1.4,2.2,3.1,2.2,5.1v67.8h-15.3V186.9z"/>
	<path class="st0" d="M376.4,186.9h7.8c2,0,3.8,0.7,5.2,2.1c1.4,1.4,2.2,3.1,2.2,5.1v67.8h-15.3V186.9z"/>
</g>
<g>
	<path class="st0" d="M0,294.6v-4.9h22.9v4.9h-8.5v23H8.5v-23H0z"/>
	<path class="st0" d="M26.7,317.6v-27.9h11c2.1,0,3.9,0.4,5.4,1.1c1.5,0.7,2.6,1.8,3.4,3.2c0.8,1.4,1.2,3,1.2,4.8
		c0,1.9-0.4,3.4-1.2,4.8c-0.8,1.3-2,2.3-3.5,3.1s-3.3,1.1-5.5,1.1h-7.4V303h6.4c1.1,0,2.1-0.2,2.8-0.5c0.7-0.3,1.3-0.8,1.7-1.4
		c0.4-0.6,0.6-1.4,0.6-2.3c0-0.9-0.2-1.7-0.6-2.3s-0.9-1.1-1.7-1.4s-1.7-0.5-2.8-0.5h-4v23H26.7z M41.7,305l6.9,12.7h-6.5L35.4,305
		H41.7z"/>
	<path class="st0" d="M69.1,289.8H75v18.1c0,2-0.5,3.8-1.4,5.3c-1,1.5-2.3,2.7-4,3.6c-1.7,0.8-3.8,1.3-6.1,1.3
		c-2.3,0-4.3-0.4-6.1-1.3s-3.1-2-4-3.6c-1-1.5-1.4-3.3-1.4-5.3v-18.1h5.9v17.6c0,1.1,0.2,2,0.7,2.8c0.5,0.8,1.1,1.5,2,1.9
		c0.9,0.5,1.8,0.7,3,0.7c1.1,0,2.1-0.2,3-0.7s1.5-1.1,2-1.9c0.5-0.8,0.7-1.8,0.7-2.8V289.8z"/>
	<path class="st0" d="M79.8,317.6v-27.9h18.8v4.9H85.7v6.6h11.9v4.9H85.7v6.7h12.9v4.9H79.8z"/>
	<path class="st0" d="M112.3,317.6v-27.9h5.9v11.5h12v-11.5h5.9v27.9h-5.9v-11.5h-12v11.5H112.3z"/>
	<path class="st0" d="M140.9,317.6v-27.9h18.8v4.9h-12.9v6.6h11.9v4.9h-11.9v6.7h12.9v4.9H140.9z"/>
	<path class="st0" d="M164.4,317.6v-27.9h11c2.1,0,3.9,0.4,5.4,1.1c1.5,0.7,2.6,1.8,3.4,3.2c0.8,1.4,1.2,3,1.2,4.8
		c0,1.9-0.4,3.4-1.2,4.8c-0.8,1.3-2,2.3-3.5,3.1s-3.3,1.1-5.5,1.1h-7.4V303h6.4c1.1,0,2.1-0.2,2.8-0.5c0.7-0.3,1.3-0.8,1.7-1.4
		c0.4-0.6,0.6-1.4,0.6-2.3c0-0.9-0.2-1.7-0.6-2.3s-0.9-1.1-1.7-1.4s-1.7-0.5-2.8-0.5h-4v23H164.4z M179.4,305l6.9,12.7h-6.5
		l-6.8-12.7H179.4z"/>
	<path class="st0" d="M189.6,317.6v-27.9h11.2c2,0,3.8,0.3,5.1,0.9s2.4,1.4,3.1,2.5c0.7,1.1,1,2.3,1,3.7c0,1.1-0.2,2-0.7,2.9
		c-0.4,0.8-1,1.5-1.8,2s-1.6,0.9-2.6,1.1v0.3c1.1,0,2.1,0.3,3,0.9c0.9,0.6,1.7,1.3,2.3,2.3c0.6,1,0.9,2.2,0.9,3.5
		c0,1.5-0.4,2.8-1.1,4c-0.7,1.2-1.8,2.1-3.2,2.7c-1.4,0.7-3.2,1-5.3,1H189.6z M195.4,301.4h4.4c0.8,0,1.5-0.1,2.2-0.4
		c0.6-0.3,1.1-0.7,1.5-1.2c0.4-0.5,0.6-1.2,0.6-1.9c0-1-0.4-1.8-1.1-2.4c-0.7-0.6-1.7-0.9-3-0.9h-4.5V301.4z M195.4,312.8h4.8
		c1.6,0,2.8-0.3,3.6-0.9c0.8-0.6,1.1-1.5,1.1-2.5c0-0.8-0.2-1.5-0.6-2c-0.4-0.6-0.9-1.1-1.6-1.4c-0.7-0.3-1.5-0.5-2.4-0.5h-4.9
		V312.8z"/>
	<path class="st0" d="M230,297.8c-0.1-1.1-0.6-1.9-1.4-2.6s-1.9-0.9-3.4-0.9c-1,0-1.8,0.1-2.4,0.4c-0.7,0.3-1.2,0.6-1.5,1.1
		c-0.3,0.5-0.5,1-0.5,1.6c0,0.5,0.1,0.9,0.3,1.3c0.2,0.4,0.6,0.7,1,1s0.9,0.5,1.4,0.7c0.5,0.2,1.1,0.4,1.7,0.5l2.5,0.6
		c1.2,0.3,2.3,0.6,3.3,1.1c1,0.5,1.9,1,2.6,1.7c0.7,0.7,1.3,1.4,1.7,2.3c0.4,0.9,0.6,1.9,0.6,3.1c0,1.7-0.4,3.2-1.3,4.4
		s-2.1,2.2-3.7,2.9c-1.6,0.7-3.5,1-5.8,1c-2.2,0-4.2-0.3-5.9-1c-1.7-0.7-3-1.7-3.9-3.1c-0.9-1.4-1.4-3-1.5-5h5.7
		c0.1,0.9,0.3,1.7,0.8,2.3c0.5,0.6,1.1,1.1,1.9,1.4c0.8,0.3,1.7,0.5,2.7,0.5c1,0,1.9-0.1,2.6-0.4c0.7-0.3,1.3-0.7,1.7-1.2
		s0.6-1.1,0.6-1.8c0-0.6-0.2-1.2-0.6-1.6c-0.4-0.4-0.9-0.8-1.6-1.1c-0.7-0.3-1.6-0.6-2.6-0.8l-3-0.8c-2.3-0.6-4.2-1.5-5.6-2.7
		s-2-2.9-2-4.9c0-1.7,0.4-3.2,1.4-4.4c0.9-1.3,2.2-2.2,3.8-3s3.4-1.1,5.4-1.1c2.1,0,3.9,0.4,5.4,1.1s2.8,1.7,3.6,3
		c0.9,1.3,1.3,2.7,1.3,4.4H230z"/>
	<path class="st0" d="M248.9,317.6v-27.9h18.4v4.9h-12.6v6.6h11.3v4.9h-11.3v11.5H248.9z"/>
	<path class="st0" d="M297,303.7c0,3-0.6,5.6-1.7,7.8c-1.1,2.1-2.7,3.8-4.7,4.9c-2,1.1-4.2,1.7-6.6,1.7c-2.5,0-4.7-0.6-6.7-1.7
		s-3.5-2.8-4.7-4.9s-1.7-4.7-1.7-7.7c0-3,0.6-5.6,1.7-7.8s2.7-3.8,4.7-4.9s4.2-1.7,6.7-1.7c2.5,0,4.7,0.6,6.6,1.7
		c2,1.1,3.5,2.7,4.7,4.9C296.4,298.1,297,300.7,297,303.7z M291,303.7c0-2-0.3-3.6-0.9-5c-0.6-1.4-1.4-2.4-2.5-3.1
		c-1.1-0.7-2.3-1-3.7-1c-1.4,0-2.7,0.3-3.7,1c-1.1,0.7-1.9,1.7-2.5,3.1c-0.6,1.4-0.9,3-0.9,5s0.3,3.6,0.9,5c0.6,1.4,1.4,2.4,2.5,3.1
		c1.1,0.7,2.3,1,3.7,1c1.4,0,2.7-0.3,3.7-1c1.1-0.7,1.9-1.7,2.5-3.1C290.7,307.3,291,305.7,291,303.7z"/>
	<path class="st0" d="M301.4,317.6v-27.9h11c2.1,0,3.9,0.4,5.4,1.1c1.5,0.7,2.6,1.8,3.4,3.2c0.8,1.4,1.2,3,1.2,4.8
		c0,1.9-0.4,3.4-1.2,4.8c-0.8,1.3-2,2.3-3.5,3.1s-3.3,1.1-5.5,1.1h-7.4V303h6.4c1.1,0,2.1-0.2,2.8-0.5c0.7-0.3,1.3-0.8,1.7-1.4
		c0.4-0.6,0.6-1.4,0.6-2.3c0-0.9-0.2-1.7-0.6-2.3s-0.9-1.1-1.7-1.4s-1.7-0.5-2.8-0.5h-4v23H301.4z M316.4,305l6.9,12.7h-6.5
		l-6.8-12.7H316.4z"/>
	<path class="st0" d="M335.5,317.6v-27.9h5.9v23h11.9v4.9H335.5z"/>
	<path class="st0" d="M363.1,289.8v27.9h-5.9v-27.9H363.1z"/>
	<path class="st0" d="M368,317.6v-27.9h18.4v4.9h-12.6v6.6h11.3v4.9h-11.3v11.5H368z"/>
	<path class="st0" d="M390.5,317.6v-27.9h18.8v4.9h-12.9v6.6h11.9v4.9h-11.9v6.7h12.9v4.9H390.5z"/>
</g>
</svg>
